<svg width="25" height="24" viewBox="0 0 25 24" fill="none" xmlns="http://www.w3.org/2000/svg">
<path d="M18.3166 7.08877C17.1362 6.57346 15.8874 6.20731 14.6032 6C14.4432 6.26982 14.2563 6.63272 14.1274 6.92143C12.7428 6.72718 11.371 6.72718 10.0118 6.92143C9.88302 6.63278 9.69191 6.26982 9.53047 6C8.24501 6.20741 6.99512 6.57449 5.8141 7.09146C3.46398 10.4049 2.82688 13.6359 3.14539 16.8212C4.70415 17.9072 6.21475 18.567 7.69989 18.9987C8.06898 18.5251 8.39525 18.0238 8.67533 17.4998C8.1421 17.3104 7.62805 17.077 7.13928 16.8023C7.26791 16.7134 7.3935 16.6207 7.51588 16.5244C10.4776 17.8168 13.6956 17.8168 16.622 16.5244C16.745 16.62 16.8705 16.7127 16.9986 16.8023C16.509 17.0777 15.994 17.3116 15.4597 17.5012C15.7414 18.0273 16.0671 18.5291 16.4352 19C17.9217 18.5683 19.4337 17.9086 20.9925 16.8212C21.3662 13.1287 20.354 9.92724 18.3166 7.08871V7.08877ZM9.07885 14.8623C8.18975 14.8623 7.46061 14.0879 7.46061 13.1449C7.46061 12.2019 8.17421 11.4262 9.07885 11.4262C9.98356 11.4262 10.7126 12.2005 10.6971 13.1449C10.6985 14.0879 9.98356 14.8623 9.07885 14.8623ZM15.059 14.8623C14.1699 14.8623 13.4408 14.0879 13.4408 13.1449C13.4408 12.2019 14.1544 11.4262 15.059 11.4262C15.9637 11.4262 16.6928 12.2005 16.6772 13.1449C16.6772 14.0879 15.9637 14.8623 15.059 14.8623Z" fill="currentcolor"/>
</svg>