<svg width="24" height="24" viewBox="0 0 24 24" fill="none" xmlns="http://www.w3.org/2000/svg">
<path d="M22.0001 11.9999C22.0001 17.5199 17.5201 21.9999 12.0001 21.9999C9.56008 21.9999 7.32008 21.1199 5.58008 19.6699C12.4701 19.0699 18.3801 15.0699 21.6401 9.35986C21.8801 10.1999 22.0001 11.0899 22.0001 11.9999V11.9999Z" stroke="white" stroke-width="1.5" stroke-linecap="round" stroke-linejoin="round"/>
<path d="M20.61 6.93C16.85 11.84 10.93 15.01 4.26 15.01C3.65 15.01 3.04 14.98 2.44 14.92C2.15 14 2 13.02 2 12C2 6.48 6.48 2 12 2C15.67 2 18.88 3.98 20.61 6.93Z" stroke="white" stroke-width="1.5" stroke-linecap="round" stroke-linejoin="round"/>
<path d="M4.26 15.01C3.65 15.01 3.04 14.98 2.44 14.92C2.15 14 2 13.02 2 12C2 6.48 6.48 2 12 2C15.67 2 18.88 3.98 20.61 6.93C16.85 11.84 10.93 15.01 4.26 15.01V15.01Z" stroke="white" stroke-width="1.5" stroke-linecap="round" stroke-linejoin="round"/>
<path d="M6.77002 9.95996V14.84" stroke="white" stroke-width="1.5" stroke-linecap="round" stroke-linejoin="round"/>
<path d="M11.2998 8.95996V13.63" stroke="white" stroke-width="1.5" stroke-linecap="round" stroke-linejoin="round"/>
<path d="M15.8398 6.95996V11.27" stroke="white" stroke-width="1.5" stroke-linecap="round" stroke-linejoin="round"/>
</svg>
