<svg width="25" height="24" viewBox="0 0 25 24" fill="none" xmlns="http://www.w3.org/2000/svg">
<path d="M22.069 12.1445C22.069 10.9157 21.0835 9.93969 19.8826 9.93969C19.3153 9.93891 18.7696 10.1591 18.3594 10.5542C16.8541 9.46977 14.793 8.76512 12.4992 8.67475L13.5026 3.93985L16.7642 4.6445C16.8003 5.47587 17.4811 6.14464 18.3236 6.14464C19.1837 6.14464 19.8826 5.43999 19.8826 4.57214C19.8826 3.70477 19.1838 3 18.3236 3C17.7143 3 17.1764 3.36144 16.9256 3.88561L13.2878 3.10848C13.1802 3.09024 13.0726 3.10848 13.0009 3.16272C12.9112 3.21696 12.8576 3.3072 12.8398 3.41569L11.7284 8.69264C9.39874 8.76512 7.30185 9.46977 5.77866 10.5723C5.3684 10.1772 4.82267 9.95709 4.25535 9.95793C3.03667 9.95793 2.06897 10.9517 2.06897 12.1627C2.06897 13.0662 2.60649 13.8251 3.3594 14.1688C3.32284 14.3897 3.30484 14.6134 3.30561 14.8374C3.30561 18.2347 7.23045 21 12.0691 21C16.9078 21 20.8327 18.2529 20.8327 14.8374C20.8326 14.6135 20.8146 14.3899 20.7789 14.1688C21.5315 13.8251 22.069 13.048 22.069 12.1445ZM7.051 13.7166C7.051 12.8493 7.74977 12.1445 8.61037 12.1445C9.4705 12.1445 10.1694 12.8491 10.1694 13.7166C10.1694 14.5841 9.47061 15.2891 8.61037 15.2891C7.74989 15.3069 7.051 14.5841 7.051 13.7166ZM15.7788 17.8914C14.7035 18.9758 12.6604 19.0482 12.0691 19.0482C11.4598 19.0482 9.41683 18.9576 8.35916 17.8914C8.19815 17.7288 8.19815 17.4757 8.35916 17.3131C8.52053 17.1507 8.77138 17.1507 8.93274 17.3131C9.61389 18 11.0476 18.2347 12.0691 18.2347C13.0907 18.2347 14.5421 17.9998 15.2052 17.3131C15.3666 17.1507 15.6174 17.1507 15.7788 17.3131C15.9221 17.4757 15.9221 17.7288 15.7788 17.8914ZM15.4919 15.307C14.6316 15.307 13.9329 14.6024 13.9329 13.7349C13.9329 12.8674 14.6316 12.1627 15.4919 12.1627C16.3524 12.1627 17.0511 12.8674 17.0511 13.7349C17.0511 14.584 16.3524 15.307 15.4919 15.307Z" fill="currentcolor"/>
</svg>