<svg width="701" height="295" viewBox="0 0 701 295" fill="none" xmlns="http://www.w3.org/2000/svg">
<g opacity="0.5" clip-path="url(#clip0_9126_132992)">
<path d="M238.208 160.585L309.991 127.588L383.936 95.6812L456.306 69.1541L523.439 51.51L582.12 44.4637L629.78 47.0888L664.688 55.8905L685.965 66.0739L693.478 73.4859" stroke="#362B56" stroke-linecap="round" stroke-linejoin="round"/>
<path d="M184.161 269.985L246.007 252.69L313.001 230.787L381.937 207.397L449.388 186.332L512.026 171.223L566.889 164.445L611.596 166.168L644.505 174.238L664.737 184.991L672.104 194.589" stroke="#362B56" stroke-linecap="round" stroke-linejoin="round"/>
<path d="M273.81 0.812744L326.226 2.03995L379.327 5.66466L431.522 9.93956" stroke="#362B56" stroke-linecap="round" stroke-linejoin="round"/>
<path d="M422.312 13.873L466.3 16.4981L506.601 18.9281L535.962 20.838" stroke="#362B56" stroke-linecap="round" stroke-linejoin="round"/>
<path d="M220.431 288.961L177.846 294.147L142.97 294.187L112.72 292.944L86.6388 282.915L68.9113 266.425L62.4583 245.879L68.3484 222.782L85.6027 198.311L129.306 186.998L183.255 164.843L245.257 135.699L249.058 129.978L255.846 119.754L257.942 118.827" stroke="#362B56" stroke-linecap="round" stroke-linejoin="round"/>
<path d="M641.74 222.376L606.195 235.655L603.078 238.906L590.572 239.378L569.5 236.769L566.816 236.184L558.168 234.753L540.261 232.486L515.722 228.284L515.607 228.26" stroke="#362B56" stroke-linecap="round" stroke-linejoin="round"/>
<path d="M27.5825 155.066L57.694 137.967L93.3122 128.198L129.004 129.222L159.311 142.51L164.059 152.206" stroke="#362B56" stroke-linecap="round" stroke-linejoin="round"/>
<path d="M141.592 158.203L111.391 175.149L85.6029 198.311L53.6395 196.401L34.2314 181.187L27.5825 155.066" stroke="#362B56" stroke-linecap="round" stroke-linejoin="round"/>
<path d="M636.086 23.3494L642.547 26.4377L652.696 31.2734" stroke="#362B56" stroke-linecap="round" stroke-linejoin="round"/>
<path d="M549.651 228.414L582.528 225.708L615.846 206.804L634.577 214.785L641.74 222.376" stroke="#362B56" stroke-linecap="round" stroke-linejoin="round"/>
<path d="M303.701 97.6886L299.165 65.4562L291.439 33.0694L282.523 10.5572" stroke="#362B56" stroke-linecap="round" stroke-linejoin="round"/>
<path d="M617.192 19.5784L645.688 30.6151L664.688 55.8906L671.125 91.9427L663.995 133.603L644.505 174.238L615.846 206.804L585.783 201.351L555.868 222.806L526.458 227.593" stroke="#362B56" stroke-linecap="round" stroke-linejoin="round"/>
<path d="M161.383 152.035L155.64 150.101L134.665 143.038L99.447 146.305" stroke="#362B56" stroke-linecap="round" stroke-linejoin="round"/>
<path d="M586.901 17.2377L612.591 24.8773L629.78 47.0888L635.629 81.5318L629.193 123.574L611.596 166.168L585.783 201.351L545.246 201.058L520.233 223.725L507.474 226.715L495.71 229.479" stroke="#362B56" stroke-linecap="round" stroke-linejoin="round"/>
<path d="M177.447 150.133L161.538 129.133L131.9 111.667L97.1221 105.239L62.5155 109.424L33.3667 122.363L14.0973 142.136L7.6116 166.794L6.5429 171.898L5.0826 178.855L0.815918 199.205" stroke="#362B56" stroke-linecap="round" stroke-linejoin="round"/>
<path d="M184.161 269.985L172.617 246.619L168.35 218.629L172.111 190.192L183.255 164.843L199.898 145.493L205.714 142.599L219.314 135.065" stroke="#362B56" stroke-linecap="round" stroke-linejoin="round"/>
<path d="M177.846 294.147L152.352 292.172L130.301 280.469L115.258 261.305L109.743 237.647L114.711 212.135L129.306 186.998L151.104 165.055L172.544 152.758L176.566 150.45" stroke="#362B56" stroke-linecap="round" stroke-linejoin="round"/>
<path d="M643.338 26.1532L655.527 32.3136L666.059 37.645" stroke="#362B56" stroke-linecap="round" stroke-linejoin="round"/>
<path d="M14.9211 245.822L35.1858 261.118L68.9114 266.425L115.257 261.305L172.617 246.619L238.632 224.269L310.268 197.165L384.034 169.11L456.2 144.493L523.154 127.458L581.672 120.534L629.193 123.574L663.995 133.603L685.19 145.988L692.654 156.269" stroke="#362B56" stroke-linecap="round" stroke-linejoin="round"/>
<path d="M28.0964 241.743L34.5984 219.921L53.6394 196.401L82.1438 173.694L115.633 156.83L148.942 151.23" stroke="#362B56" stroke-linecap="round" stroke-linejoin="round"/>
<path d="M546.086 19.1395L567.648 24.349L582.12 44.4637L587.064 78.0127L581.672 120.534L566.889 164.445L545.246 201.058L495.742 207.332L476.963 229.349L458.574 234.631" stroke="#362B56" stroke-linecap="round" stroke-linejoin="round"/>
<path d="M422.311 13.873L412.946 32.7687L407.203 54.8746" stroke="#362B56" stroke-linecap="round" stroke-linejoin="round"/>
<path d="M335.208 83.7911L334.278 63.3025L331.798 31.2408L328.967 9.85825L326.226 2.03992" stroke="#362B56" stroke-linecap="round" stroke-linejoin="round"/>
<path d="M99.4471 146.305L93.3123 128.198L97.1221 105.239L110.346 80.6947L132.202 57.5973L161.636 38.2383" stroke="#362B56" stroke-linecap="round" stroke-linejoin="round"/>
<path d="M496.248 27.4942L512.499 31.9967L523.439 51.51L527.2 84.8802L523.154 127.458L512.026 171.223L495.743 207.332L439.403 219.872L427.875 239.41L416.593 242.84" stroke="#362B56" stroke-linecap="round" stroke-linejoin="round"/>
<path d="M451.126 34.5892L467.271 35.4832" stroke="#362B56" stroke-linecap="round" stroke-linejoin="round"/>
<path d="M269.005 279.323L256.711 272L246.007 252.69L238.632 224.269L235.867 191.663L238.208 160.585" stroke="#362B56" stroke-linecap="round" stroke-linejoin="round"/>
<path d="M496.656 27.4292L506.601 18.9282L526.857 17.0508" stroke="#362B56" stroke-linecap="round" stroke-linejoin="round"/>
<path d="M167.804 152.393L159.311 142.51L161.538 129.133L170.863 114.528L186.763 100.232L208.488 87.5459L235.149 77.3382L265.741 69.9912L299.165 65.4562L334.278 63.3025L369.912 62.9449L384.083 63.27" stroke="#362B56" stroke-linecap="round" stroke-linejoin="round"/>
<path d="M321.396 266.539L316.925 255.128L313.001 230.787L310.268 197.165L309.2 160.447L309.991 127.588L312.512 103.906L316.314 91.8533" stroke="#362B56" stroke-linecap="round" stroke-linejoin="round"/>
<path d="M700.184 113.561L692.679 104.158L671.125 91.9427L635.629 81.5318L587.064 78.0127L527.2 84.8802L458.656 102.727L384.744 129.279L309.2 160.447L235.867 191.663L168.35 218.629L109.743 237.647L62.4583 245.879L28.0964 241.743" stroke="#362B56" stroke-linecap="round" stroke-linejoin="round"/>
<path d="M439.525 43.1228L449.543 48.828L456.306 69.1541L458.656 102.727L456.2 144.493L449.388 186.332L439.403 219.872L378.821 236.753L316.926 255.128L256.711 272L201.015 284.906L152.352 292.172L112.72 292.944L83.5471 287.117L54.7164 276.99L35.3817 263.247L32.3714 260.679L14.9213 245.822L7.49739 225.448L14.2931 203.577L34.2314 181.187L64.1635 160.617L99.4472 146.305L115.633 156.83L141.592 158.203L167.608 152.441L167.804 152.393L176.566 150.45L177.447 150.133L185.238 147.329L187.767 146.419L190.067 145.59L190.728 145.354L205.258 140.121L219.314 135.065L224.861 132.733L248.194 122.923L255.846 119.754L257.943 118.827L274.797 111.042L275.336 110.79L287.222 105.296L303.701 97.6886L316.314 91.8533L335.208 83.7911L369.602 69.1053L378.568 65.2774L384.083 63.27L407.203 54.8747L439.525 43.1228ZM439.525 43.1228L448.548 40.644L467.271 35.4832L496.248 27.4942L496.656 27.4292L535.962 20.8381L546.086 19.1395L551.936 18.8713L586.901 17.2377L617.192 19.5784L636.086 23.3494L643.339 26.1533L652.696 31.2734L654.515 32.143L666.059 37.6451L673.507 42.6758L684.953 60.328L689.889 67.9513L693.478 73.4859L700.184 113.561L692.654 156.269L672.104 194.589L641.74 222.376L637.62 227.26L608.259 237.159L603.079 238.906L568.578 234.948L561.766 230.803L560.754 230.194L549.651 228.414L548.574 228.382L533.849 227.861L526.458 227.593L515.689 228.26H515.608L495.71 229.479L458.574 234.631L427.06 240.792L416.593 242.84L384.654 250.146L375.199 252.495L321.396 266.539L269.005 279.323L220.432 288.961L201.015 284.906L184.161 269.985L130.301 280.469L86.639 282.915L54.7164 276.99L35.1859 261.118L28.0966 241.743L7.49739 225.448L0.815918 199.205L7.59529 176.197L27.5826 155.066L33.3667 122.363L50.8413 88.131L78.8807 56.9227L90.8323 48.9256L116.106 32.0211L136.811 28.9246L177.496 12.9954L205.274 7.54204L223.695 3.91732L273.81 0.812744L282.523 10.5572L328.967 9.85828L376.055 11.3862L422.312 13.8731L431.522 9.93955L481.213 13.8162L526.858 17.0508L551.936 18.8713" stroke="#362B56" stroke-linecap="round" stroke-linejoin="round"/>
<path d="M224.861 132.733L223.156 121.729L208.488 87.5459L186.828 58.5319L161.636 38.2383" stroke="#362B56" stroke-linecap="round" stroke-linejoin="round"/>
<path d="M248.194 122.923L247.019 113.22L235.149 77.3382L217.682 46.2355L197.409 23.902L177.496 12.9954L160.926 15.1247L152.785 18.1967L116.106 32.0211" stroke="#362B56" stroke-linecap="round" stroke-linejoin="round"/>
<path d="M378.568 65.2775L381.758 73.7053L383.936 95.6812L384.743 129.279L384.034 169.11L381.937 207.397L378.821 236.753L375.198 252.495" stroke="#362B56" stroke-linecap="round" stroke-linejoin="round"/>
<path d="M606.195 235.655L599.399 230.673L564.548 230.795L560.754 230.194" stroke="#362B56" stroke-linecap="round" stroke-linejoin="round"/>
<path d="M205.258 140.121L203.773 132.123L186.763 100.232L161.579 74.3636L132.202 57.5973L103.175 51.5181L77.9996 79.2968L62.5155 109.424L57.6941 137.967L64.1635 160.617L82.1439 173.694L111.391 175.149L151.104 165.055L180.49 153.278L183.949 151.889L190.826 149.134L199.898 145.493L205.714 142.599L225.049 133.944L227.847 132.652L248.243 123.289L255.805 119.811" stroke="#362B56" stroke-linecap="round" stroke-linejoin="round"/>
<path d="M533.849 227.861L540.261 232.486L555.37 234.705L558.854 235.217L566.816 236.184L590.572 239.378" stroke="#362B56" stroke-linecap="round" stroke-linejoin="round"/>
<path d="M672.104 194.589L667.021 200.351L642.311 222.969L637.62 227.26" stroke="#362B56" stroke-linecap="round" stroke-linejoin="round"/>
<path d="M564.548 230.795L570.838 233.372" stroke="#362B56" stroke-linecap="round" stroke-linejoin="round"/>
<path d="M451.126 34.5892L448.548 40.644" stroke="#362B56" stroke-linecap="round" stroke-linejoin="round"/>
<path d="M369.602 69.1053L369.912 62.9449L372.735 31.4359L376.055 11.3861L379.327 5.66461" stroke="#362B56" stroke-linecap="round" stroke-linejoin="round"/>
<path d="M274.797 111.042L274.446 106.978L265.742 69.9912L252.966 37.832L238.184 14.8565L223.695 3.9173" stroke="#362B56" stroke-linecap="round" stroke-linejoin="round"/>
<path d="M187.767 146.419L189.667 143.705L203.773 132.123L223.156 121.729L247.019 113.22L274.446 106.978L287.222 105.296" stroke="#362B56" stroke-linecap="round" stroke-linejoin="round"/>
<path d="M190.067 145.59L189.667 143.705L170.863 114.528L142.979 92.6498L110.346 80.6947L77.9994 79.2968L50.8411 88.131L32.9504 106.507" stroke="#362B56" stroke-linecap="round" stroke-linejoin="round"/>
<path d="M384.654 250.146L404.763 245.148L427.875 239.41L435.65 237.817L476.963 229.349L503.305 225.927L520.233 223.717L555.868 222.806L582.528 225.708L599.399 230.673L634.577 214.785L664.737 184.991L685.19 145.988L692.679 104.158L685.965 66.0739L666.059 37.645L661.384 36.0359L645.688 30.615L612.591 24.8773L567.648 24.349L512.499 31.9967L449.543 48.828L381.758 73.7053L335.665 93.8038L312.512 103.906L275.703 121.306L249.507 133.692L245.257 135.699L238.208 160.585L172.111 190.192L114.711 212.135L68.3485 222.782L34.5985 219.921L14.293 203.577L7.59521 176.197L14.0972 142.136L32.9505 106.507L49.5115 88.5618L51.9915 85.8717L62.9315 74.0141L78.8806 56.9227L103.175 51.5181L136.811 28.9246L161.636 38.2383L197.409 23.902L238.184 14.8565L282.523 10.5572" stroke="#362B56" stroke-linecap="round" stroke-linejoin="round"/>
<path d="M548.574 228.382L548.746 228.495L558.168 234.753L568.578 234.948L570.838 233.372L606.195 235.655" stroke="#362B56" stroke-linecap="round" stroke-linejoin="round"/>
<path d="M160.927 15.1246L176.517 12.4589L180.694 11.7437L205.274 7.54199" stroke="#362B56" stroke-linecap="round" stroke-linejoin="round"/>
<path d="M167.608 152.441L164.059 152.206L161.383 152.035L148.942 151.23L134.666 143.038L129.004 129.222L131.9 111.667L142.979 92.6497L161.579 74.3636L186.828 58.5318L217.682 46.2354L252.966 37.8319L291.44 33.0694L331.798 31.2408L372.735 31.4359L412.946 32.7687L451.126 34.5892L466.3 16.4981L481.213 13.8162" stroke="#362B56" stroke-linecap="round" stroke-linejoin="round"/>
</g>
<defs>
<clipPath id="clip0_9126_132992">
<rect width="701" height="295" fill="white"/>
</clipPath>
</defs>
</svg>
