<svg width="24" height="24" viewBox="0 0 24 24" fill="none" xmlns="http://www.w3.org/2000/svg">
<path d="M20.6736 5.04619L13.6118 0.966953C13.1066 0.675281 12.5336 0.521729 11.9502 0.521729C11.3669 0.521729 10.7938 0.675281 10.2886 0.966953L3.22682 5.04619C2.72152 5.33792 2.30193 5.75755 2.01025 6.26289C1.71858 6.76822 1.56509 7.34144 1.56522 7.92491V16.0751C1.56509 16.6585 1.71858 17.2318 2.01025 17.7371C2.30193 18.2424 2.72152 18.6621 3.22682 18.9538L10.2886 23.033C10.7938 23.3247 11.3669 23.4783 11.9502 23.4783C12.5336 23.4783 13.1066 23.3247 13.6118 23.033L20.6736 18.9538C21.1789 18.6621 21.5985 18.2424 21.8902 17.7371C22.1819 17.2318 22.3354 16.6585 22.3352 16.0751V7.92491C22.3354 7.34144 22.1819 6.76822 21.8902 6.26289C21.5985 5.75755 21.1789 5.33792 20.6736 5.04619V5.04619ZM20.6736 16.0751C20.6737 16.3668 20.597 16.6534 20.4511 16.9061C20.3053 17.1587 20.0955 17.3686 19.8428 17.5144L12.781 21.5895C12.5291 21.7374 12.2423 21.8154 11.9502 21.8154C11.6581 21.8154 11.3713 21.7374 11.1194 21.5895L4.05762 17.5144C3.80497 17.3686 3.59518 17.1587 3.44934 16.9061C3.3035 16.6534 3.22675 16.3668 3.22682 16.0751V7.92491C3.22749 7.63276 3.30451 7.34586 3.45024 7.09266C3.59597 6.83945 3.80535 6.62873 4.05762 6.48139L11.1194 2.40632C11.372 2.26048 11.6586 2.1837 11.9502 2.1837C12.2419 2.1837 12.5284 2.26048 12.781 2.40632L19.8428 6.48139C20.0951 6.62873 20.3045 6.83945 20.4502 7.09266C20.5959 7.34586 20.673 7.63276 20.6736 7.92491V16.0751Z" fill="white"/>
<path d="M18.3889 11.1215L15.6888 9.56374C15.499 9.45557 15.2842 9.39869 15.0657 9.39869C14.8472 9.39869 14.6325 9.45557 14.4426 9.56374L8.83473 12.8059L6.55003 11.485V8.8451L8.83473 7.52413L11.1194 8.8451V10.2658L12.781 9.29996V8.60417C12.7812 8.38528 12.7237 8.17021 12.6143 7.98062C12.5049 7.79102 12.3475 7.63357 12.1579 7.52413L9.45783 5.97676C9.26798 5.86859 9.05324 5.81171 8.83473 5.81171C8.61623 5.81171 8.40148 5.86859 8.21163 5.97676L5.51153 7.53451C5.32295 7.64507 5.16635 7.80276 5.05711 7.99211C4.94787 8.18146 4.88974 8.39596 4.88843 8.61455V11.7301C4.88959 11.949 4.94763 12.1638 5.05687 12.3535C5.16611 12.5432 5.32278 12.7013 5.51153 12.8122L8.21163 14.3699C8.40181 14.4771 8.61643 14.5334 8.83473 14.5334C9.05304 14.5334 9.26765 14.4771 9.45783 14.3699L15.0657 11.1215L17.3504 12.4445V15.0803L15.0657 16.4012L12.781 15.0803V13.643L11.1194 14.6026V15.3233C11.1204 15.5411 11.1784 15.7549 11.2877 15.9433C11.3971 16.1317 11.5539 16.2882 11.7425 16.3971L14.4426 17.959C14.6317 18.0695 14.8468 18.1275 15.0657 18.1272C15.2848 18.1285 15.5002 18.0704 15.6888 17.959L18.3889 16.4012C18.5782 16.292 18.7354 16.1348 18.8448 15.9456C18.9541 15.7564 19.0118 15.5418 19.012 15.3233V12.2078C19.0133 11.9878 18.9563 11.7715 18.8468 11.5807C18.7374 11.3899 18.5794 11.2315 18.3889 11.1215V11.1215Z" fill="white"/>
</svg>
