<svg width="24" height="24" viewBox="0 0 24 24" fill="none" xmlns="http://www.w3.org/2000/svg">
<path d="M5.17795 9.63316L5.74827 9.27088V9.26315C5.79078 8.97812 5.89754 8.70649 6.06047 8.46878C6.22341 8.23108 6.43825 8.03353 6.68876 7.89107L10.9283 5.4475C11.2221 5.28077 11.5541 5.19311 11.8919 5.19311C12.2297 5.19311 12.5617 5.28077 12.8555 5.4475C13.2406 5.59563 13.5737 5.85356 13.8135 6.18929C14.0533 6.52502 14.1892 6.92378 14.2044 7.33607V14.212L15.7462 15.1062V7.33607C15.7349 6.64825 15.5272 5.97799 15.1475 5.40435C14.7678 4.83071 14.232 4.37763 13.6032 4.09853L13.6014 4.10161C13.0755 3.80494 12.4816 3.65008 11.8778 3.65224C11.274 3.65441 10.6812 3.81351 10.1575 4.11395L5.91784 6.55751C5.39122 6.86138 4.95376 7.29838 4.64935 7.8247C4.34495 8.35101 4.1843 8.94812 4.18353 9.55612V10.3809L4.1912 10.3732C4.48676 10.0849 4.81844 9.83615 5.17795 9.63316V9.63316ZM13.2408 18.9989L12.6549 18.652C12.3793 18.7713 12.0796 18.8244 11.7797 18.807C11.4799 18.7896 11.1883 18.7022 10.9283 18.5518L6.68864 16.1082C6.37438 15.925 6.11762 15.6576 5.94736 15.3361C5.7771 15.0146 5.70013 14.652 5.72515 14.2891C5.68045 13.9027 5.74834 13.5116 5.92065 13.1629C6.09297 12.8142 6.36236 12.5226 6.69644 12.3234L12.6549 8.90089V7.11252L5.9333 10.9822C5.63313 11.1439 5.36423 11.358 5.13925 11.6142C4.81767 11.9494 4.56722 12.3462 4.40296 12.7807C4.2387 13.2152 4.16402 13.6785 4.18342 14.1426C4.13507 14.7997 4.27197 15.4572 4.57856 16.0404C4.88515 16.6235 5.34915 17.1091 5.91784 17.4418L10.1575 19.8854C10.6853 20.1884 11.2833 20.3479 11.8919 20.3479C12.5005 20.3479 13.0984 20.1884 13.6262 19.8854L14.3508 19.4691C14.3431 19.4614 14.3431 19.4614 14.3354 19.4614C13.9518 19.356 13.5838 19.2005 13.2408 18.9989V18.9989ZM19.1344 7.82473C18.83 7.29842 18.3925 6.86142 17.8659 6.55756L17.1336 6.1336C17.1336 6.14127 17.1412 6.15673 17.1412 6.16443C17.2405 6.547 17.2898 6.94085 17.2878 7.33611V8.02215C17.5267 8.20033 17.7207 8.43175 17.8545 8.69803C17.9883 8.9643 18.0582 9.25811 18.0586 9.55612V14.4433C18.0581 14.779 17.9696 15.1087 17.8018 15.3995C17.6341 15.6903 17.3931 15.932 17.1027 16.1006C16.7828 16.3624 16.3928 16.5241 15.9814 16.5652C15.57 16.6063 15.1557 16.5252 14.7902 16.3318L8.8008 12.8862L7.25141 13.7804L14.0194 17.6654C14.6373 18.0067 15.3415 18.1601 16.0454 18.1066C16.7492 18.0532 17.4222 17.7954 17.9815 17.3648L17.9814 17.3647C18.4757 17.0537 18.8833 16.6228 19.1663 16.112C19.4494 15.6013 19.5987 15.0272 19.6003 14.4433V9.55612C19.5995 8.94812 19.4388 8.35103 19.1344 7.82473V7.82473Z" fill="white"/>
</svg>
