<svg width="24" height="24" viewBox="0 0 24 24" fill="none" xmlns="http://www.w3.org/2000/svg">
<path fill-rule="evenodd" clip-rule="evenodd" d="M13.9913 1.32731C12.6781 0.569119 11.0602 0.56912 9.74695 1.32731L6.27841 3.32987V7.14647H6.27837V8.4128C6.27837 9.26495 6.7331 10.0523 7.47119 10.4782L15.3873 15.0461C15.5808 15.1578 15.7 15.3642 15.7 15.5876V19.6545L13.1116 21.149L13.5515 21.9108L13.1116 21.149C12.3428 21.5929 11.3955 21.5929 10.6267 21.149L10.1868 21.9108L10.6267 21.149L4.56711 17.6505C3.79826 17.2066 3.32463 16.3863 3.32463 15.4985V13.6624L6.71756 15.6203L10.7211 17.9304C10.8865 18.0259 10.9884 18.2023 10.9884 18.3932C10.9884 18.879 11.3822 19.2729 11.8681 19.2729C12.3539 19.2729 12.7478 18.879 12.7478 18.3932C12.7478 17.5735 12.3104 16.8162 11.6005 16.4065L3.59333 11.7862C3.42797 11.6907 3.3261 11.5143 3.3261 11.3234C3.3261 11.3062 3.32561 11.2892 3.32463 11.2722V8.50151C3.32463 7.6324 3.77854 6.82792 4.51899 6.37799V4.34567L3.6874 4.82578L3.6874 4.82578C2.37419 5.58397 1.56522 6.98514 1.56522 8.50151V15.4985C1.56522 17.0148 2.37418 18.416 3.6874 19.1742L4.12725 18.4124L3.6874 19.1742L9.74696 22.6727C11.0602 23.4309 12.6781 23.4309 13.9913 22.6727L17.4685 20.6652V18.6336L17.4595 18.6387V15.5876C17.4595 14.7355 17.0047 13.9481 16.2667 13.5222L8.35053 8.95433C8.15701 8.84266 8.03779 8.63622 8.03779 8.4128V4.34569L10.6267 2.85101L10.1878 2.0909L10.6267 2.85101C11.3955 2.40711 12.3428 2.40711 13.1116 2.85101L13.5505 2.0909L13.1116 2.85101L19.1711 6.34948C19.94 6.79338 20.4136 7.61373 20.4136 8.50151V10.8766L13.0153 6.60756C12.8499 6.51214 12.748 6.33573 12.748 6.1448C12.748 5.65895 12.3542 5.2651 11.8683 5.2651C11.3825 5.2651 10.9886 5.65895 10.9886 6.1448C10.9886 6.96444 11.426 7.72181 12.1359 8.13147L20.1431 12.7518C20.3084 12.8472 20.4103 13.0236 20.4103 13.2146C20.4103 13.2406 20.4114 13.2663 20.4136 13.2918V15.4985C20.4136 16.3642 19.9632 17.1658 19.2279 17.6167V19.6494L20.0509 19.1742C21.3641 18.416 22.173 17.0148 22.173 15.4985V8.50151C22.173 6.98514 21.3641 5.58396 20.0509 4.82578L13.9913 1.32731Z" fill="white"/>
</svg>
