<svg width="25" height="24" viewBox="0 0 25 24" fill="none" xmlns="http://www.w3.org/2000/svg">
<rect x="3.06897" y="3" width="18" height="18" rx="5" stroke="currentcolor" stroke-width="1.5"/>
<path fill-rule="evenodd" clip-rule="evenodd" d="M17.569 7.5C18.1213 7.5 18.569 7.05228 18.569 6.5C18.569 5.94772 18.1213 5.5 17.569 5.5C17.0167 5.5 16.569 5.94772 16.569 6.5C16.569 7.05228 17.0167 7.5 17.569 7.5ZM15.569 12C15.569 13.933 14.002 15.5 12.069 15.5C10.136 15.5 8.56897 13.933 8.56897 12C8.56897 10.067 10.136 8.5 12.069 8.5C14.002 8.5 15.569 10.067 15.569 12ZM17.069 12C17.069 14.7614 14.8304 17 12.069 17C9.30755 17 7.06897 14.7614 7.06897 12C7.06897 9.23858 9.30755 7 12.069 7C14.8304 7 17.069 9.23858 17.069 12Z" fill="currentcolor"/>
</svg>