<svg width="24" height="24" viewBox="0 0 24 24" fill="none" xmlns="http://www.w3.org/2000/svg">
<path d="M20.784 5.03142L13.6881 0.964136C13.1822 0.674246 12.6093 0.521729 12.0263 0.521729C11.4433 0.521729 10.8704 0.674246 10.3645 0.964136L3.30179 5.04388C2.79643 5.33565 2.37679 5.75534 2.08508 6.26073C1.79336 6.76613 1.63985 7.33942 1.63998 7.92297V16.0991C1.64277 16.682 1.79751 17.2542 2.08893 17.7591C2.38036 18.264 2.7984 18.6842 3.30179 18.9782L10.3645 23.033C10.8697 23.3247 11.4429 23.4782 12.0263 23.4782C12.6097 23.4782 13.1829 23.3247 13.6881 23.033L20.7508 18.9532C21.2562 18.6615 21.6758 18.2418 21.9675 17.7364C22.2592 17.231 22.4127 16.6577 22.4126 16.0741V7.92297C22.4268 7.33899 22.2829 6.76203 21.9963 6.25306C21.7096 5.74409 21.2908 5.32201 20.784 5.03142V5.03142ZM20.7508 16.0741C20.7512 16.3663 20.6746 16.6533 20.5288 16.9064C20.3829 17.1595 20.1729 17.3697 19.9199 17.5158L12.8572 21.5934C12.6046 21.7393 12.318 21.8161 12.0263 21.8161C11.7346 21.8161 11.448 21.7393 11.1954 21.5934L7.29014 19.3417L8.74422 18.5108C8.99721 18.3647 9.20722 18.1545 9.3531 17.9014C9.49897 17.6484 9.57556 17.3613 9.57512 17.0692V10.5839L12.0221 9.16724L12.8073 9.62009V7.70901C12.5585 7.57466 12.2794 7.50605 11.9966 7.50969C11.7138 7.51332 11.4366 7.58908 11.1912 7.72978L8.74422 9.14232C8.49123 9.28838 8.28122 9.49855 8.13534 9.75164C7.98947 10.0047 7.91289 10.2918 7.91332 10.5839V17.0567L5.62833 18.3778L4.1327 17.5137C3.88456 17.3684 3.67787 17.1618 3.53239 16.9138C3.38691 16.6657 3.30751 16.3845 3.30179 16.097V14.3936L5.60755 13.0642L6.25151 13.4339V11.5332C6.01528 11.4337 5.75922 11.3901 5.50336 11.406C5.2475 11.4219 4.99878 11.4967 4.77665 11.6246L3.30179 12.4763V7.92297C3.30136 7.63084 3.37794 7.34377 3.52382 7.09067C3.6697 6.83758 3.87971 6.62741 4.1327 6.48134L11.1954 2.40576C11.4477 2.25888 11.7344 2.1815 12.0263 2.1815C12.3182 2.1815 12.6049 2.25888 12.8572 2.40576L16.7583 4.65751L15.3042 5.48841C15.0512 5.63448 14.8412 5.84465 14.6953 6.09774C14.5495 6.35083 14.4729 6.63791 14.4733 6.93003V13.4152L12.0221 14.8319L11.2369 14.3791V16.2943C11.4858 16.4292 11.7652 16.4978 12.0483 16.4934C12.3313 16.489 12.6084 16.4119 12.853 16.2694L15.3042 14.8569C15.5572 14.7108 15.7672 14.5006 15.9131 14.2475C16.059 13.9944 16.1355 13.7074 16.1351 13.4152V6.92588L18.4201 5.62136L19.9116 6.48134C20.1646 6.62741 20.3746 6.83758 20.5205 7.09067C20.6663 7.34377 20.7429 7.63084 20.7425 7.92297V9.55985L18.4367 10.8768L17.7928 10.5071V12.414C17.9974 12.4968 18.216 12.5391 18.4367 12.5386C18.7271 12.5432 19.0136 12.4716 19.2676 12.3309L20.7466 11.4834L20.7508 16.0741Z" fill="white"/>
</svg>
