<svg width="24" height="24" viewBox="0 0 24 24" fill="none" xmlns="http://www.w3.org/2000/svg">
<path d="M22.6049 10.2593V16.0983C22.604 16.6745 22.4521 17.2405 22.1643 17.7396C21.8764 18.2388 21.4627 18.6537 20.9645 18.9431L13.8671 23.0379C13.367 23.3264 12.7998 23.4782 12.2225 23.4782C11.6452 23.4782 11.078 23.3264 10.578 23.0379L3.48474 18.9431C3.01187 18.6721 2.61392 18.2875 2.32681 17.8242C2.0397 17.361 1.87246 16.8335 1.84017 16.2894C1.82768 16.077 1.88073 15.8659 1.99214 15.6847C2.10356 15.5034 2.26797 15.3608 2.46311 15.2761L20.8482 7.38547C20.7257 7.00763 20.4665 6.68918 20.1214 6.49259L13.0365 2.39779C12.7897 2.25507 12.5097 2.17992 12.2246 2.17992C11.9395 2.17992 11.6595 2.25507 11.4127 2.39779L4.31532 6.49674C4.06818 6.63846 3.86279 6.84285 3.71988 7.08931C3.57696 7.33576 3.50159 7.61555 3.50135 7.90044V13.0252L1.84017 13.7353V7.90044C1.84187 7.32391 1.99459 6.7579 2.28314 6.25877C2.57168 5.75965 2.98597 5.34484 3.48474 5.05567L10.5821 0.960871C11.0817 0.673162 11.6481 0.521729 12.2246 0.521729C12.8011 0.521729 13.3675 0.673162 13.8671 0.960871L20.9645 5.05567C21.4362 5.32765 21.833 5.7125 22.1193 6.17567C22.4056 6.63884 22.5725 7.16585 22.6049 7.7094C22.6174 7.92178 22.5643 8.13287 22.4529 8.31411C22.3415 8.49535 22.1771 8.63799 21.9819 8.72272L3.59687 16.6133C3.72087 16.9915 3.9815 17.3099 4.32778 17.5062L11.4127 21.601C11.6595 21.7437 11.9395 21.8189 12.2246 21.8189C12.5097 21.8189 12.7897 21.7437 13.0365 21.601L20.1339 17.502C20.3798 17.3593 20.584 17.1546 20.7261 16.9083C20.8682 16.662 20.9433 16.3827 20.9437 16.0983V10.9736L22.6049 10.2593Z" fill="white"/>
</svg>
