<svg width="48" height="48" viewBox="0 0 48 48" fill="none" xmlns="http://www.w3.org/2000/svg">
<path d="M35.1959 12.2344C32.9649 11.1906 30.5794 10.432 28.0853 10C27.7791 10.5538 27.4212 11.2986 27.1745 11.8911C24.5233 11.4924 21.8965 11.4924 19.294 11.8911C19.0474 11.2986 18.6814 10.5538 18.3724 10C15.8757 10.432 13.4874 11.1934 11.2563 12.24C6.7563 19.0401 5.53642 25.6713 6.14636 32.2084C9.13102 34.4373 12.0235 35.7913 14.8672 36.6773C15.5693 35.7109 16.1955 34.6837 16.735 33.6011C15.7076 33.2107 14.7235 32.729 13.7937 32.1697C14.0404 31.9869 14.2817 31.7959 14.5148 31.5993C20.1859 34.2518 26.3477 34.2518 31.951 31.5993C32.1869 31.7959 32.4281 31.9869 32.6721 32.1697C31.7396 32.7317 30.7528 33.2135 29.7254 33.6039C30.2649 34.6837 30.8884 35.7137 31.5932 36.68C34.4396 35.794 37.3348 34.4401 40.3195 32.2084C41.0351 24.6303 39.0969 18.0599 35.1959 12.2344ZM17.5076 28.1882C15.8052 28.1882 14.409 26.5989 14.409 24.6635C14.409 22.7281 15.7754 21.1361 17.5076 21.1361C19.2398 21.1361 20.6359 22.7253 20.6061 24.6635C20.6088 26.5989 19.2398 28.1882 17.5076 28.1882ZM28.9583 28.1882C27.2559 28.1882 25.8597 26.5989 25.8597 24.6635C25.8597 22.7281 27.226 21.1361 28.9583 21.1361C30.6905 21.1361 32.0866 22.7253 32.0568 24.6635C32.0568 26.5989 30.6905 28.1882 28.9583 28.1882Z" fill="white"/>
</svg>
