<svg width="25" height="24" viewBox="0 0 25 24" fill="none" xmlns="http://www.w3.org/2000/svg">
<path d="M21.069 6.73077C20.394 7.07692 19.719 7.19231 18.9315 7.30769C19.719 6.84615 20.2815 6.15385 20.5065 5.23077C19.8315 5.69231 19.044 5.92308 18.144 6.15385C17.469 5.46154 16.4565 5 15.444 5C13.0815 5 11.2815 7.30769 11.844 9.61538C8.80647 9.5 6.10647 8 4.19397 5.69231C3.18147 7.42308 3.74397 9.61538 5.31897 10.7692C4.75647 10.7692 4.19397 10.5385 3.63147 10.3077C3.63147 12.0385 4.86897 13.6538 6.55647 14.1154C5.99397 14.2308 5.43147 14.3462 4.86897 14.2308C5.31897 15.7308 6.66897 16.8846 8.35647 16.8846C7.00647 17.9231 4.98147 18.5 3.06897 18.2692C4.75647 19.3077 6.66897 20 8.69397 20C15.5565 20 19.3815 14.1154 19.1565 8.69231C19.944 8.23077 20.619 7.53846 21.069 6.73077Z" fill="currentcolor"/>
</svg>