<svg width="24" height="24" viewBox="0 0 24 24" fill="none" xmlns="http://www.w3.org/2000/svg">
<path fill-rule="evenodd" clip-rule="evenodd" d="M7.72144 19.2735L10.3419 19.9203V19.0745L10.5558 18.8755H12.0532V19.8705V20.5671H10.4488L8.47014 19.771L7.72144 19.2735Z" fill="#CDBDB2"/>
<path fill-rule="evenodd" clip-rule="evenodd" d="M16.2783 19.2735L13.7113 19.9203V19.0745L13.4974 18.8755H12V19.8705V20.5671H13.6044L15.5831 19.771L16.2783 19.2735Z" fill="#CDBDB2"/>
<path fill-rule="evenodd" clip-rule="evenodd" d="M10.556 17.433L10.342 19.0748L10.6094 18.8758H13.3903L13.7112 19.0748L13.4973 17.433L13.0694 17.1842L10.9303 17.234L10.556 17.433Z" fill="#393939"/>
<path fill-rule="evenodd" clip-rule="evenodd" d="M9.11206 6.33777L10.3955 9.12394L10.9838 17.2337H13.0695L13.7112 9.12394L14.8877 6.33777H9.11206Z" fill="#F89C35"/>
<path fill-rule="evenodd" clip-rule="evenodd" d="M3.4974 12.4585L2 16.4885L5.7435 16.2895H8.15003V14.5482L8.04308 10.9659L7.50829 11.364L3.4974 12.4585Z" fill="#F89D35"/>
<path fill-rule="evenodd" clip-rule="evenodd" d="M6.33105 12.9054L10.7163 13.0049L10.235 15.0945L8.14933 14.597L6.33105 12.9054Z" fill="#D87C30"/>
<path fill-rule="evenodd" clip-rule="evenodd" d="M6.33105 12.9561L8.14933 14.5481V16.1402L6.33105 12.9561Z" fill="#EA8D3A"/>
<path fill-rule="evenodd" clip-rule="evenodd" d="M8.14966 14.5967L10.2888 15.0942L10.984 17.2336L10.5027 17.4823L8.14966 16.1888V14.5967Z" fill="#F89D35"/>
<path fill-rule="evenodd" clip-rule="evenodd" d="M8.14926 16.1901L7.72144 19.2748L10.5558 17.4339L8.14926 16.1901Z" fill="#EB8F35"/>
<path fill-rule="evenodd" clip-rule="evenodd" d="M10.7162 13.005L10.9836 17.234L10.1814 15.0698L10.7162 13.005Z" fill="#EA8E3A"/>
<path fill-rule="evenodd" clip-rule="evenodd" d="M5.6897 16.2398L8.14971 16.1901L7.72188 19.2748L5.6897 16.2398Z" fill="#D87C30"/>
<path fill-rule="evenodd" clip-rule="evenodd" d="M3.17653 20.6173L7.72221 19.2739L5.69002 16.239L2 16.4878L3.17653 20.6173Z" fill="#EB8F35"/>
<path fill-rule="evenodd" clip-rule="evenodd" d="M10.3954 9.12451L8.09585 10.9156L6.33105 12.9057L10.7163 13.055L10.3954 9.12451Z" fill="#E8821E"/>
<path fill-rule="evenodd" clip-rule="evenodd" d="M7.72144 19.2748L10.5558 17.434L10.3419 19.0261V19.9216L8.41666 19.5733L7.72144 19.2748Z" fill="#DFCEC3"/>
<path fill-rule="evenodd" clip-rule="evenodd" d="M16.2783 19.2748L13.4974 17.434L13.7113 19.0261V19.9216L15.6366 19.5733L16.2783 19.2748Z" fill="#DFCEC3"/>
<path fill-rule="evenodd" clip-rule="evenodd" d="M9.53991 13.9012L10.1282 15.0456L8.04251 14.548L9.53991 13.9012Z" fill="#393939"/>
<path fill-rule="evenodd" clip-rule="evenodd" d="M3.12207 4L10.3952 9.12456L9.16515 6.33839L3.12207 4Z" fill="#E88F35"/>
<path fill-rule="evenodd" clip-rule="evenodd" d="M3.12253 4L2.15991 6.73641L2.6947 9.72159L2.32035 9.92061L2.85513 10.3684L2.4273 10.7167L3.01557 11.2142L2.64122 11.5127L3.49688 12.5078L7.50777 11.3634C9.46865 9.90402 10.4313 9.15773 10.3956 9.12456C10.36 9.09139 7.9356 7.3832 3.12253 4Z" fill="#8E5A30"/>
<path fill-rule="evenodd" clip-rule="evenodd" d="M20.5026 12.4585L22 16.4885L18.2565 16.2895H15.85V14.5482L15.9569 10.9659L16.4917 11.364L20.5026 12.4585Z" fill="#F89D35"/>
<path fill-rule="evenodd" clip-rule="evenodd" d="M17.668 12.9054L13.2827 13.0049L13.764 15.0945L15.8497 14.597L17.668 12.9054Z" fill="#D87C30"/>
<path fill-rule="evenodd" clip-rule="evenodd" d="M17.668 12.9561L15.8497 14.5481V16.1402L17.668 12.9561Z" fill="#EA8D3A"/>
<path fill-rule="evenodd" clip-rule="evenodd" d="M15.8503 14.5967L13.7112 15.0942L13.016 17.2336L13.4973 17.4823L15.8503 16.1888V14.5967Z" fill="#F89D35"/>
<path fill-rule="evenodd" clip-rule="evenodd" d="M15.8505 16.1901L16.2783 19.2748L13.4974 17.4836L15.8505 16.1901Z" fill="#EB8F35"/>
<path fill-rule="evenodd" clip-rule="evenodd" d="M13.2828 13.005L13.0154 17.234L13.8176 15.0698L13.2828 13.005Z" fill="#EA8E3A"/>
<path fill-rule="evenodd" clip-rule="evenodd" d="M18.3096 16.2398L15.8496 16.1901L16.2774 19.2748L18.3096 16.2398Z" fill="#D87C30"/>
<path fill-rule="evenodd" clip-rule="evenodd" d="M20.8235 20.6173L16.2778 19.2739L18.31 16.239L22 16.4878L20.8235 20.6173Z" fill="#EB8F35"/>
<path fill-rule="evenodd" clip-rule="evenodd" d="M13.6036 9.12451L15.9032 10.9156L17.668 12.9057L13.2827 13.055L13.6036 9.12451Z" fill="#E8821E"/>
<path fill-rule="evenodd" clip-rule="evenodd" d="M14.4594 13.9012L13.8711 15.0456L15.9568 14.548L14.4594 13.9012Z" fill="#393939"/>
<path fill-rule="evenodd" clip-rule="evenodd" d="M20.877 4L13.6039 9.12456L14.8339 6.33839L20.877 4Z" fill="#E88F35"/>
<path fill-rule="evenodd" clip-rule="evenodd" d="M20.8758 4L21.8384 6.73641L21.3036 9.72159L21.6779 9.92061L21.1432 10.3684L21.571 10.7167L20.9827 11.2142L21.3571 11.5127L20.5014 12.5078L16.4905 11.3634C14.5296 9.90402 13.567 9.15773 13.6027 9.12456C13.6383 9.09139 16.0627 7.3832 20.8758 4Z" fill="#8E5A30"/>
</svg>
