<svg width="24" height="24" viewBox="0 0 24 24" fill="none" xmlns="http://www.w3.org/2000/svg">
<path d="M20.8477 5.04388L13.785 0.964136C13.2792 0.674246 12.7063 0.521729 12.1232 0.521729C11.5402 0.521729 10.9673 0.674246 10.4614 0.964136L3.39872 5.04388C2.89335 5.33565 2.47372 5.75533 2.182 6.26073C1.89029 6.76613 1.73678 7.33942 1.73691 7.92296V16.0741C1.73678 16.6577 1.89029 17.231 2.182 17.7364C2.47372 18.2418 2.89335 18.6615 3.39872 18.9532L10.4614 23.033C10.9667 23.3247 11.5398 23.4782 12.1232 23.4782C12.7066 23.4782 13.2798 23.3247 13.785 23.033L20.8477 18.9532C21.3531 18.6615 21.7727 18.2418 22.0644 17.7364C22.3561 17.231 22.5097 16.6577 22.5095 16.0741V7.92296C22.5097 7.33942 22.3561 6.76613 22.0644 6.26073C21.7727 5.75533 21.3531 5.33565 20.8477 5.04388V5.04388ZM4.22962 17.5074C3.97664 17.3614 3.76662 17.1512 3.62074 16.8981C3.47487 16.645 3.39829 16.358 3.39872 16.0658V7.92296C3.39829 7.63084 3.47487 7.34376 3.62074 7.09067C3.76662 6.83757 3.97664 6.62741 4.22962 6.48135L11.2923 2.40576C11.5446 2.25888 11.8313 2.1815 12.1232 2.1815C12.4151 2.1815 12.7018 2.25888 12.9541 2.40576L15.9038 4.11119C15.0953 4.48977 14.4433 5.13737 14.0592 5.94333L13.9387 6.18845C13.1925 5.89132 12.3849 5.78144 11.5864 5.86842C10.7879 5.95539 10.0229 6.23657 9.35817 6.68738C8.69342 7.1382 8.14917 7.74494 7.77299 8.4546C7.3968 9.16425 7.20011 9.95523 7.20011 10.7584V13.2179C7.19872 13.9734 7.37369 14.7189 7.71111 15.3949L8.86192 12.9769V10.7688C8.86247 9.90403 9.20624 9.07483 9.81774 8.46333C10.4292 7.85184 11.2584 7.50806 12.1232 7.50751C12.4985 7.50673 12.8711 7.5714 13.2242 7.69862L12.2562 9.73018L8.64173 17.3163C8.51238 17.5917 8.32695 17.8371 8.0973 18.0367C7.86766 18.2363 7.59886 18.3857 7.30812 18.4755C6.76927 18.6434 6.18658 18.5988 5.67955 18.3508L4.22962 17.5074ZM20.8477 16.0658C20.8481 16.358 20.7716 16.645 20.6257 16.8981C20.4798 17.1512 20.2698 17.3614 20.0168 17.5074L12.9541 21.5913C12.7015 21.7372 12.4149 21.814 12.1232 21.814C11.8315 21.814 11.5449 21.7372 11.2923 21.5913L8.30106 19.8672C9.10909 19.4863 9.75967 18.8364 10.1415 18.0288L10.2578 17.7796C11.0052 18.0872 11.8169 18.2059 12.6211 18.1251C13.4253 18.0443 14.1971 17.7664 14.8684 17.3162C15.5396 16.866 16.0895 16.2573 16.4694 15.5439C16.8493 14.8305 17.0474 14.0344 17.0463 13.2262V10.7688C17.0464 9.99327 16.8627 9.22874 16.5104 8.53783L15.3845 10.8976V13.2283C15.3829 14.0927 15.0387 14.9213 14.4275 15.5326C13.8162 16.1438 12.9877 16.4879 12.1232 16.4896C11.7315 16.4913 11.3428 16.4209 10.9766 16.2819L15.559 6.65583C15.8155 6.12558 16.2717 5.71857 16.8277 5.52391C17.3836 5.32924 17.9941 5.36279 18.5253 5.6172L20.0168 6.48135C20.2698 6.62741 20.4798 6.83757 20.6257 7.09067C20.7716 7.34376 20.8481 7.63084 20.8477 7.92296V16.0658Z" fill="white"/>
</svg>
