<svg width="24" height="24" viewBox="0 0 24 24" fill="none" xmlns="http://www.w3.org/2000/svg">
<path d="M20.5241 5.04388L13.4615 0.964137C12.9556 0.674247 12.3827 0.521729 11.7996 0.521729C11.2166 0.521729 10.6437 0.674247 10.1378 0.964137L3.07514 5.04388C2.56978 5.33565 2.15014 5.75533 1.85842 6.26073C1.56671 6.76613 1.4132 7.33942 1.41333 7.92296V16.0991C1.41755 16.6784 1.57313 17.2465 1.86462 17.7472C2.15612 18.2478 2.57342 18.6636 3.07514 18.9532L10.1378 23.033C10.6431 23.3247 11.2162 23.4782 11.7996 23.4782C12.3831 23.4782 12.9562 23.3247 13.4615 23.033L20.5241 18.9532C21.0295 18.6615 21.4491 18.2418 21.7409 17.7364C22.0326 17.231 22.1861 16.6577 22.186 16.0741V7.89804C22.1817 7.31873 22.0262 6.75058 21.7347 6.24993C21.4432 5.74929 21.0259 5.33353 20.5241 5.04388ZM3.07514 7.92296C3.07471 7.63084 3.15129 7.34376 3.29717 7.09067C3.44304 6.83758 3.65306 6.62741 3.90604 6.48134L10.9687 2.40576C11.221 2.25888 11.5077 2.1815 11.7996 2.1815C12.0916 2.1815 12.3783 2.25888 12.6305 2.40576L19.6932 6.48134C19.9426 6.62527 20.1503 6.83152 20.2959 7.07987C20.4416 7.32822 20.5202 7.61015 20.5241 7.89804V8.72894C20.5219 9.37577 20.2637 9.99542 19.806 10.4524C19.3482 10.9094 18.7281 11.1666 18.0813 11.1676H5.518C4.63739 11.1655 3.77999 11.4499 3.07514 11.9778V7.92296ZM20.5241 16.0741C20.5246 16.3663 20.448 16.6533 20.3021 16.9064C20.1562 17.1595 19.9462 17.3697 19.6932 17.5158L12.6305 21.5913C12.3779 21.7372 12.0913 21.814 11.7996 21.814C11.5079 21.814 11.2214 21.7372 10.9687 21.5913L3.90604 17.5158C3.65669 17.3718 3.44901 17.1656 3.30335 16.9172C3.15769 16.6689 3.07905 16.387 3.07514 16.0991V15.2682C3.07734 14.6213 3.33554 14.0017 3.79331 13.5447C4.25108 13.0877 4.87117 12.8306 5.518 12.8295H18.0813C18.9619 12.8316 19.8193 12.5472 20.5241 12.0193V16.0741Z" fill="white"/>
<path d="M7.93598 7.50751H9.54793V9.92129H11.2097V7.50751C11.2097 7.06677 11.0347 6.64409 10.723 6.33244C10.4114 6.02079 9.98867 5.8457 9.54793 5.8457H7.93598C7.49524 5.8457 7.07255 6.02079 6.7609 6.33244C6.44925 6.64409 6.27417 7.06677 6.27417 7.50751V9.92129H7.93598V7.50751Z" fill="white"/>
<path d="M9.54793 16.4895H7.93598V14.0757H6.27417V16.4895C6.27417 16.9302 6.44925 17.3529 6.7609 17.6645C7.07255 17.9762 7.49524 18.1513 7.93598 18.1513H9.54793C9.98867 18.1513 10.4114 17.9762 10.723 17.6645C11.0347 17.3529 11.2097 16.9302 11.2097 16.4895V14.0757H9.54793V16.4895Z" fill="white"/>
<path d="M14.4833 7.50751H16.0995V9.92129H17.7613V7.50751C17.7613 7.06677 17.5862 6.64409 17.2745 6.33244C16.9629 6.02079 16.5402 5.8457 16.0995 5.8457H14.4833C14.0426 5.8457 13.6199 6.02079 13.3083 6.33244C12.9966 6.64409 12.8215 7.06677 12.8215 7.50751V9.92129H14.4833V7.50751Z" fill="white"/>
<path d="M16.0995 16.4895H14.4833V14.0757H12.8215V16.4895C12.8215 16.9302 12.9966 17.3529 13.3083 17.6645C13.6199 17.9762 14.0426 18.1513 14.4833 18.1513H16.0995C16.5402 18.1513 16.9629 17.9762 17.2745 17.6645C17.5862 17.3529 17.7613 16.9302 17.7613 16.4895V14.0757H16.0995V16.4895Z" fill="white"/>
</svg>
