<svg width="24" height="24" viewBox="0 0 24 24" fill="none" xmlns="http://www.w3.org/2000/svg">
<g clip-path="url(#clip0_3840_76613)">
<path d="M13.8008 7.64901L16.3257 7.6311L16.3076 10.1199" stroke="white" stroke-width="1.5" stroke-linecap="round" stroke-linejoin="round"/>
<path d="M16.326 7.6311L14.7966 9.16199C14.3761 9.57101 13.8371 9.84002 13.2547 9.9315C12.6723 10.023 12.0756 9.93236 11.5477 9.67228C10.8565 9.34936 10.111 9.15514 9.34863 9.09932" stroke="white" stroke-width="1.5" stroke-linecap="round" stroke-linejoin="round"/>
<path d="M15.0769 15.196C15.0769 16.4089 14.7133 17.5945 14.0322 18.603C13.351 19.6115 12.3828 20.3975 11.2501 20.8617C10.1174 21.3258 8.87093 21.4473 7.66843 21.2106C6.46592 20.974 5.36135 20.39 4.49439 19.5323C3.62743 18.6747 3.03702 17.582 2.79783 16.3924C2.55863 15.2028 2.6814 13.9697 3.15059 12.8492C3.61979 11.7286 4.41434 10.7708 5.43378 10.097C6.45321 9.42314 7.65174 9.06348 8.87781 9.06348H9.3484" stroke="white" stroke-width="1.5" stroke-linecap="round" stroke-linejoin="round"/>
<path d="M10.1902 16.351L7.67432 16.3689L7.69242 13.8711" stroke="white" stroke-width="1.5" stroke-linecap="round" stroke-linejoin="round"/>
<path d="M7.67432 16.3688L9.23993 14.8469C9.6625 14.4413 10.2013 14.1747 10.7828 14.0833C11.3642 13.992 11.96 14.0804 12.4888 14.3366C13.1759 14.6635 13.9186 14.8608 14.6788 14.9185" stroke="white" stroke-width="1.5" stroke-linecap="round" stroke-linejoin="round"/>
<path d="M8.92285 8.80389C8.92285 7.59099 9.28642 6.40534 9.96759 5.39685C10.6488 4.38837 11.6169 3.60235 12.7497 3.1382C13.8824 2.67404 15.1288 2.5526 16.3313 2.78922C17.5338 3.02585 18.6384 3.60991 19.5054 4.46756C20.3723 5.3252 20.9627 6.41791 21.2019 7.6075C21.4411 8.79708 21.3184 10.0301 20.8492 11.1507C20.38 12.2713 19.5854 13.229 18.566 13.9029C17.5465 14.5767 16.348 14.9364 15.1219 14.9364H14.6423" stroke="white" stroke-width="1.5" stroke-linecap="round" stroke-linejoin="round"/>
</g>
<defs>
<clipPath id="clip0_3840_76613">
<rect width="20" height="20" fill="white" transform="translate(2 2)"/>
</clipPath>
</defs>
</svg>
