<svg width="25" height="24" viewBox="0 0 25 24" fill="none" xmlns="http://www.w3.org/2000/svg">
<path fill-rule="evenodd" clip-rule="evenodd" d="M12.0384 2C6.5338 2 2.06897 6.58933 2.06897 12.2474C2.06897 16.7739 4.94359 20.6088 8.85796 21.9919C9.34726 22.0547 9.53074 21.7404 9.53074 21.4889C9.53074 21.2375 9.53074 20.6088 9.53074 19.7286C6.77845 20.3573 6.16683 18.3456 6.16683 18.3456C5.73869 17.1511 5.06591 16.8367 5.06591 16.8367C4.14848 16.2081 5.12707 16.2081 5.12707 16.2081C6.10567 16.2709 6.65613 17.2768 6.65613 17.2768C7.57356 18.8485 8.98028 18.4084 9.53074 18.1569C9.59191 17.4654 9.89772 17.0253 10.1424 16.7739C7.94053 16.5224 5.61637 15.6422 5.61637 11.6816C5.61637 10.55 5.98334 9.66984 6.65613 8.91543C6.59496 8.72682 6.22799 7.65808 6.77845 6.27499C6.77845 6.27499 7.63472 6.02352 9.53074 7.34374C10.3259 7.09227 11.1821 7.0294 12.0384 7.0294C12.8947 7.0294 13.7509 7.15514 14.546 7.34374C16.4421 6.02352 17.2983 6.27499 17.2983 6.27499C17.8488 7.65808 17.4818 8.72682 17.4207 8.97829C18.0323 9.66984 18.4604 10.6128 18.4604 11.7445C18.4604 15.7051 16.1362 16.5224 13.9344 16.7739C14.3014 17.0882 14.6072 17.7169 14.6072 18.6599C14.6072 20.043 14.6072 21.1117 14.6072 21.4889C14.6072 21.7404 14.7907 22.0547 15.28 21.9919C19.2555 20.6088 22.069 16.7739 22.069 12.2474C22.0078 6.58933 17.543 2 12.0384 2Z" fill="currentcolor"/>
</svg>