<svg width="24" height="24" viewBox="0 0 24 24" fill="none" xmlns="http://www.w3.org/2000/svg">
<path d="M1.8882 7.89443L11.8882 2.89443C11.9586 2.85924 12.0414 2.85924 12.1118 2.89443L22.1118 7.89443C22.1965 7.93677 22.25 8.02334 22.25 8.11803V10C22.25 10.1381 22.1381 10.25 22 10.25H2C1.86193 10.25 1.75 10.1381 1.75 10V8.11803C1.75 8.02334 1.8035 7.93678 1.8882 7.89443Z" stroke="white" stroke-width="1.5" stroke-linejoin="round"/>
<path d="M20 11V21H16M4 11V21H8M1.5 21H8M22 21H16M8 10.5V21M8 21H12M12 10.5V21M12 21H16M16 11V21" stroke="white" stroke-width="1.5" stroke-linecap="round" stroke-linejoin="round"/>
</svg>
