<svg width="24" height="24" viewBox="0 0 24 24" fill="none" xmlns="http://www.w3.org/2000/svg">
<path d="M10.0011 9V8.68368C10.0011 8.40754 9.77723 8.18368 9.50108 8.18368H6.74331C6.61592 8.17471 6.49364 8.12602 6.39117 8.04349C6.28869 7.96096 6.21039 7.8481 6.16567 7.71847C6.12096 7.58884 6.11173 7.44796 6.13911 7.31278C6.16648 7.1776 6.22929 7.05387 6.31998 6.95648L10.0011 2.90569C10.2583 2.61908 10.566 2.39126 10.9058 2.2357C11.2457 2.08015 11.6108 2 11.9797 2C12.3486 2 12.7137 2.08015 13.0535 2.2357C13.3934 2.39126 13.701 2.61908 13.9583 2.90569L17.805 7.0762C17.8986 7.17727 17.9622 7.30635 17.9876 7.44688C18.013 7.58741 17.9991 7.73297 17.9477 7.86487C17.8963 7.99677 17.8096 8.109 17.699 8.18714C17.5883 8.26528 17.4586 8.30577 17.3265 8.30341H15.8356C14.7957 8.30341 13.9491 8.15375 13.9491 9.39094V9.91964C13.9491 10.8351 13.3276 11.6336 12.4402 11.8584L11.5192 12.0917C10.6318 12.3165 10.0103 13.1151 10.0103 14.0305V14.6091C10.0103 15.8562 9.16363 15.6966 8.12372 15.6966H6.66969C6.53768 15.697 6.40872 15.7396 6.29891 15.8191C6.18911 15.8985 6.10332 16.0113 6.05227 16.1433C6.00122 16.2752 5.98717 16.4206 6.01186 16.5612C6.03656 16.7018 6.09892 16.8314 6.19114 16.9338L10.0011 21.0943C10.2583 21.3809 10.566 21.6087 10.9058 21.7643C11.2457 21.9199 11.6108 22 11.9797 22C12.3486 22 12.7137 21.9199 13.0535 21.7643C13.3934 21.6087 13.701 21.3809 13.9583 21.0943L17.7038 17.0535C17.8 16.9536 17.8663 16.8246 17.8938 16.6833C17.9214 16.542 17.9091 16.3949 17.8584 16.2613C17.8077 16.1277 17.7211 16.0138 17.6098 15.9344C17.4985 15.8551 17.3677 15.8139 17.2345 15.8163H14.4583C14.1821 15.8163 13.9583 15.5925 13.9583 15.3163V14.6091" stroke="white" stroke-width="1.5" stroke-linecap="round" stroke-linejoin="round"/>
</svg>
