<svg width="24" height="24" viewBox="0 0 24 24" fill="none" xmlns="http://www.w3.org/2000/svg">
<path d="M16.2398 7.76005C16.7977 8.31729 17.2402 8.97902 17.5422 9.70741C17.8441 10.4358 17.9995 11.2166 17.9995 12.0051C17.9995 12.7935 17.8441 13.5743 17.5422 14.3027C17.2402 15.0311 16.7977 15.6928 16.2398 16.2501M7.75982 16.2401C7.20196 15.6828 6.75941 15.0211 6.45746 14.2927C6.15551 13.5643 6.0001 12.7835 6.0001 11.9951C6.0001 11.2066 6.15551 10.4258 6.45746 9.69741C6.75941 8.96902 7.20196 8.30729 7.75982 7.75005M19.0698 4.93005C20.9445 6.80533 21.9977 9.34841 21.9977 12.0001C21.9977 14.6517 20.9445 17.1948 19.0698 19.0701M4.92982 19.0701C3.05511 17.1948 2.00195 14.6517 2.00195 12.0001C2.00195 9.34841 3.05511 6.80533 4.92982 4.93005M13.9998 12.0001C13.9998 13.1046 13.1044 14.0001 11.9998 14.0001C10.8952 14.0001 9.99982 13.1046 9.99982 12.0001C9.99982 10.8955 10.8952 10.0001 11.9998 10.0001C13.1044 10.0001 13.9998 10.8955 13.9998 12.0001Z" stroke="#E2E1E6" stroke-width="2" stroke-linecap="round" stroke-linejoin="round"/>
</svg>
