<svg width="189" height="62" viewBox="0 0 189 62" xmlns="http://www.w3.org/2000/svg" xmlns:xlink="http://www.w3.org/1999/xlink"><defs><path d="M37.693221-1.25175324c.3534493 0 .6898231.15469216.9233715.42464157l4.5214344 5.22614856c.0561552-.01073034.114373-.02149498.1745643-.03222813 1.089032-.19419306 2.2114622-.2651846 3.2888965-.13656417 1.3766305.16433745 2.5541527.64462104 3.4296313 1.53657383.9141664.9313686 1.8237634 1.88154291 2.6873157 2.80044735.3022986.32167541.5773536.61657802.8199472.8784192.0850757.0918258.1600706.1730187.2243312.24279176.4063584.44327557.4998582.96043317.3192865 1.41199497l-1.1666976 2.9175997 1.5544921 4.5249816c.0809882.2357489.0908247.4907589.0282448.7322417-.0110634.0426915-.0110634.0426915-.0636386.2455962-.0719472.2776857-.0719472.2776857-.179871.694282-.1937115.747774-.4095624 1.581205-.6420177 2.4789899-.6641547 2.5650872-1.3283078 5.13197-1.9481742 7.5302109-1.5301718 5.9202623-2.5334648 9.8181828-2.7749611 10.7895433-1.3148225 5.2877529-2.3579214 7.1233727-5.7298116 9.5408344-2.954079 2.1179138-9.1183247 6.3677008-10.3035031 7.122376-.113263.0721215-.238544.156168-.4044582.2706562-.0645111.0445156-.3776152.2623617-.4674247.3242443-.5761483.396991-.9871935.6513994-1.4301698.8613025-.5617521.2661846-1.0992624.4144709-1.6443852.4144709-.5451229 0-1.0826332-.1482863-1.6443853-.4144709-.4429763-.2099031-.8540215-.4643115-1.4301698-.8613025-.0898095-.0618826-.4029136-.2797287-.4674247-.3242443-.1659142-.1144882-.2911951-.1985347-.4044582-.2706562-1.1851784-.7546752-7.3494241-5.0044622-10.3035031-7.122376-3.3718902-2.4174617-4.4149891-4.2530815-5.72980766-9.5408185-.24154357-.9713494-1.2448465-4.8692576-2.76378108-10.7461009-.63104131-2.4415009-1.29519773-5.0084366-1.95935562-7.5735863-.23245642-.8978068-.44830845-1.7312593-.64202087-2.4790535-.10792433-.4166078-.10792433-.4166078-.17987191-.6943013-.0525754-.2029105-.0525754-.2029105-.06363893-.2456034-.06257781-.2414807-.05274066-.496488.02824665-.7322345l1.55449208-4.5249816-1.16669752-2.9175997c-.18057175-.4515618-.08707195-.9687194.23961294-1.32532543.14393418-.1564426.21892898-.2376355.30400477-.3294613.24259352-.26184118.51764855-.55674379.81994717-.8784192.86355233-.91890444 1.77314931-1.86907875 2.6873157-2.80044735.87547858-.89195279 2.05300077-1.37223638 3.42963128-1.53657383 1.0774344-.12862043 2.1998645-.05762889 3.2888965.13656417.0601913.01073315.1184091.02149779.1745643.03222813l4.5214344-5.22614856c.2335484-.26994941.5699223-.42464157.9233715-.42464157H37.693221Zm-.5559902 2.50355619H20.6820165L16.047627 6.60851183c-.3117265.36031243-.798497.5074948-1.2530083.3788659-.0236925-.00670509-.0828409-.02214909-.1731176-.04351634-.158493-.03751313-.3398177-.07546151-.5395388-.1110752-.8734188-.15574553-1.7699175-.21244734-2.5775198-.11603854-.8715348.10404085-1.54181454.37743217-1.97546703.81924486-.90050044.9174455-1.79794563 1.85492592-2.64993967 2.76153119-.20122902.2141274-.3901209.4161223-.56505652.6040368l1.04416195 2.6111708c.11292885.282405.12068451.5970398.02181133.8848504l-1.58366657 4.6099058c.04297619.1658751.05865379.2263936.14756023.5695887.19373722.74789.4096148 1.5814412.64209797 2.4793513.66424091 2.5654703 1.32848329 5.1327382 1.94845273 7.5314018 1.53404398 5.935302 2.53621588 9.8288162 2.78070168 10.8119976 1.1829078 4.7572381 1.9359607 6.0824422 4.7617075 8.1083489 2.9205177 2.0938522 9.0521878 6.3211807 10.1915574 7.0466866.1433691.0912918.2914846.1906573.480202.3208807.0699723.048284.3821603.2654928.4660511.3232972.4755829.3276971.7944169.5250331 1.0892732.66475.2625573.124412.465702.1804548.6057339.1804548.1400318 0 .3431765-.0560428.6057338-.1804548.2948564-.1397169.6136903-.3370529 1.0892732-.66475.0838908-.0578044.3960788-.2750132.4660512-.3232972.1887173-.1302234.3368328-.2295889.4802019-.3208807 1.1393696-.7255059 7.2710397-4.9528344 10.1915574-7.0466866 2.8257468-2.0259067 3.5787997-3.3511108 4.7616966-8.1083051.2444393-.9831981 1.246595-4.8767001 2.7694908-10.7688118.6312023-2.4420994 1.2954419-5.0093164 1.95968-7.5747259.2324822-.8978889.4483589-1.731419.6420953-2.4792893.0889037-.3431767.1045828-.4036996.1475561-.56956l-1.5836653-4.609902c-.0988731-.2878106-.0911175-.6024454.0218114-.8848504l1.0441619-2.6111708c-.1749356-.1879145-.3638275-.3899094-.5650565-.6040368-.851994-.90660527-1.7494392-1.84408569-2.6499397-2.76153119-.4336524-.44181269-1.1039322-.71520401-1.975467-.81924486-.8076023-.0964088-1.704101-.03970699-2.5775198.11603854-.1997211.03561369-.3810458.07356207-.5395388.1110752-.0902767.02136725-.1494251.03681125-.1731176.04351634-.4545113.1286289-.9412818-.01855347-1.2530083-.3788659l-4.6343895-5.35670888ZM28.9095993 36.2785924c.3343866 0 2.4768524.7705981 4.1961196 1.676921 1.7191452.9064471 2.9650741 1.5474108 3.3633859 1.8013353.3981897.2540488.1552988.7329383-.2073905.9941959-.3628114.2612576-5.23783 4.1072881-5.7109243 4.53236-.4732163.4251961-1.1684624 1.1273105-1.6411907 1.1273105-.4727284 0-1.1680965-.7021144-1.6411908-1.1273105-.4732163-.4250719-5.3481129-4.2711024-5.7109243-4.53236-.3628113-.2612576-.6055802-.7401471-.2073904-.9941959.3983117-.2539245 1.6442406-.8948882 3.3635078-1.8013353 1.7190232-.9063229 3.861611-1.676921 4.1959977-1.676921Zm.0066108-27.3934935c.0874682.00138503 1.0390799.02720128 2.4333017.50068708 1.4639329.4971601 3.0498602 1.11861022 3.7818267 1.11861022.7319664 0 6.1607176-1.05646521 6.1607176-1.05646521s6.4334971 7.92348901 6.4334971 9.61694061c0 1.6934515-.8093109 2.1403985-1.6230136 3.0207447-.8137027.8803462-4.3675218 4.7251338-4.8239029 5.2188138-.4563811.4938043-1.4064735 1.2424031-.8476171 2.5898312.5588563 1.3474282 1.3832945 3.062009.4665066 4.801075-.91691 1.739066-2.487588 2.8998106-3.4940419 2.7079068-1.0064538-.1920281-3.3700955-1.4504646-4.2393057-2.025306-.8692101-.5748413-3.6240878-2.8896187-3.6240878-3.7753094 0-.8855664 2.8477154-2.475733 3.3737553-2.8370441.5262839-.3611868 2.9259139-1.7595739 2.9750776-2.3084386.0490418-.548989.0303767-.7099446-.6778009-2.0661973-.7081775-1.3563771-1.9835071-3.1662884-1.7712368-4.3705344.2122703-1.2041218 2.269096-1.8302949 3.7369327-2.3950688 1.4675927-.5646496 4.2935932-1.6311823 4.646523-1.7969851.3531738-.1659272.261922-.3238998-.8076029-.4271849-1.069281-.103285-4.1040139-.5136906-5.4721812-.12516-1.3681673.3885306-3.7055802.979654-3.8949155 1.2931134-.1893353.3134594-.3563457.3240241-.1618866 1.4053473.1943371 1.0813232 1.1954232 6.2699345 1.2925308 7.191545.0972295.9216106.2872968 1.5308803-.6880485 1.7580824-.9754673.2272022-2.61739.6216987-3.1816141.6216987-.5642242 0-2.2062689-.3944965-3.1816142-.6216987-.9754673-.2272021-.7854-.8364718-.6881705-1.7580824.0972296-.9216105 1.0981937-6.1102218 1.2926528-7.191545.1943371-1.0813232.0273267-1.0918879-.1618866-1.4053473-.1893353-.3134594-2.5268702-.9045828-3.8950375-1.2931134-1.3681673-.3885306-4.4027782.021875-5.4721811.12516-1.069403.1032851-1.1606548.2612577-.807603.4271849.3530518.1658028 3.1790523 1.2323355 4.646645 1.7969851 1.4677147.5647739 3.5246624 1.190947 3.7369327 2.3950688.2122703 1.204246-1.0631813 3.0141573-1.7712368 4.3705344-.7081775 1.3562527-.7269647 1.5172083-.6778009 2.0661973.0490417.5488647 2.4487937 1.9472518 2.9749556 2.3084386.5261619.3613111 3.3737554 1.9514777 3.3737554 2.8370441 0 .8856907-2.7547558 3.2004681-3.6239659 3.7753094-.8692102.5748414-3.2328519 1.8332779-4.2393057 2.025306-1.0064539.1919038-2.5771319-.9688408-3.4940419-2.7079068-.9167879-1.739066-.0923497-3.4536468.4663847-4.801075.5588563-1.3474281-.3911141-2.0960269-.8476172-2.5898312-.4562591-.49368-4.0102002-4.3384676-4.8239029-5.2188138-.8137027-.8803462-1.6228916-1.3272932-1.6228916-3.0207447 0-1.6934516 6.4334971-9.61694061 6.4334971-9.61694061s5.4287512 1.05646521 6.1607176 1.05646521c.7319665 0 2.3178938-.62145012 3.7818267-1.11861022 1.4639329-.49716009 2.4398882-.5007645 2.4398882-.5007645Z" id="a"/></defs><g fill="none" fill-rule="evenodd"><g fill="#FFF" fill-rule="nonzero"><path d="M63.66008194 33.62385V13.58504895H65.545852c1.53635473 0 2.78181632 1.26604448 2.78181632 2.82778948v8.90981407c3.02211962-2.74084432 5.59214318-3.83801008 9.01748358-3.9083943 6.5696482-.13662819 12.2717607 4.8233891 12.8134614 11.4809081.6475971 7.9534167-5.0422966 13.9402155-12.4550429 13.9402155-8.13772909 0-14.04348846-5.1297674-14.04348846-13.2115318Zm4.59020056 1.5732943c.46024194 4.1402481 4.34989725 7.5600931 8.4513453 7.6263371 5.343694.0828049 8.9849001-3.4571072 8.9849001-8.6945211s-3.5597473-8.6945493-8.7527427-8.6945493c-5.55141376-.0123926-9.31480801 4.0864531-8.6835027 9.7627333ZM97.9460698 21.91522823v3.56889387c2.9365879-3.31219849 4.6757322-4.20235184 8.1132915-4.20235184.9999412.0010956 1.9982231.08277638 2.9854632.24427464v4.7405841c-1.0534684-.2943693-2.1413719-.442006-3.2339124-.4388663-2.4885648 0-4.5779817.8280497-6.1094062 2.3930635-1.3440694 1.3704221-1.7432173 2.4427464-1.7432173 4.5956754v13.1991111h-4.8386497V21.91522823h4.8264309ZM110.1933929 29.8852059c.2484491-2.3475207.6964723-3.6185769 1.690269-4.8399501 1.9916665-2.48414886 5.5758515-3.76348554 10.6507316-3.76348554 4.0322081 0 6.968796.63759821 9.0093377 2.0038801 1.694342 1.12200724 2.3908143 2.78638704 2.3908143 5.71768274v10.7025414c0 2.3475207.5987218 3.1755704 2.2401157 3.1300276.3666938-.0131511.7324277-.0463209 1.0956201-.0993659v3.2252533c-.8159841.2834675-1.6755047.4152977-2.53744.3891833-3.0343385 0-4.4272831-.9274156-5.3722046-3.6185769-2.9854632 2.786387-6.0727498 3.9580772-10.5000328 3.9580772-5.9220512 0-9.5551114-2.736704-9.5551114-7.1874707-.0259467-2.5380425 1.4428627-4.8461278 3.7308107-5.8625914 1.7920925-.7825069 2.8877127-1.0267816 8.0114681-1.5650138 4.3784078-.4388663 5.1278283-.5382323 6.3700742-.9315559 1.3440694-.4388663 1.9427912-1.1716902 1.9427912-2.3930634 0-2.5917953-2.1382922-3.7634855-6.6185234-3.7634855-4.235855 0-6.4189495.8528911-7.2946311 3.0306616-.4337246 1.1136307-1.4895361 1.8477079-2.667774 1.8548312l-2.5863153.0124207Zm19.1428062 4.1071262c-3.0697507.9076115-6.2219673 1.4971492-9.4084856 1.7596054-4.3295326.4388663-5.673602 1.2710562-5.673602 3.469528 0 2.4427464 1.9916665 3.7262233 5.9220512 3.7262233 3.2339123 0 5.6736019-.8280496 7.4168191-2.4427464 1.3929447-1.3207391 1.7432173-2.2481547 1.7432173-4.5542729v-1.9583374ZM148.9514661 46.0115305h-1.2463189c-1.0979391.0069874-2.1022985-.6274879-2.5822424-1.6313158L134.683966 21.91522823h2.8999315c1.6898546-.0137163 3.228252.98823369 3.9222388 2.55453307l6.9647232 16.1469678 7.1968805-16.2090715c.7042393-1.54162347 2.2298309-2.52261222 3.9018741-2.50913043h2.6351906L151.5214896 44.4050562c-.484943.9901126-1.4819839 1.6133219-2.5700235 1.6064743ZM165.475374 35.358614c.496898 4.6453584 4.072937 7.5269711 9.404412 7.5269711 3.026193 0 5.294819-.9149948 6.699982-2.7408443.819572-1.0470224 2.064257-1.6567837 3.380539-1.6560992h2.806253c-2.443762 5.473408-6.818097 8.1645693-13.33887 8.1645693-8.145875 0-13.6361946-5.0345417-13.6361946-12.5615129 0-7.5269711 5.6247266-12.80578749 13.7380186-12.80578749 5.869103 0 10.589637 2.68702109 12.491699 7.18747079.847171 2.0701241 1.193371 3.9083942 1.193371 6.8893729l-22.73921-.0041402Zm17.815028-3.7262234c-1.09562-4.2520348-4.329532-6.6492385-8.809764-6.6492385-4.480231 0-7.714143 2.3972037-8.858639 6.6492385h17.668403Z"/></g><use fill="#FFF" xlink:href="#a" transform="translate(-2.910345 2)"/></g></svg>