<svg width="141" height="37" viewBox="0 0 141 37" fill="none" xmlns="http://www.w3.org/2000/svg"><path d="m33.7171 9.07684-.7812-1.3644c-.2628-.4572-.8856-.54-1.26-.1692l-1.782 1.782c-.27.27-.3096.69116-.1008 1.00796.6516.9972 1.1736 2.07 1.5516 3.1968h.0036c.4824 1.4292.7344 2.9448.7344 4.4712 0 7.7184-6.282 14.0004-14.0004 14.0004-2.322 0-4.554-.558-6.5628-1.6272l3.0204-3.0204c1.1268.4284 2.3292.648 3.5424.648 5.5152 0 10.0008-4.4856 10.0008-10.0008 0-.3456-.0216-.6912-.0576-1.0332-.1188-1.1592-.4392-2.2824-.9432-3.3228-.2412-.4968-.8964-.6084-1.2888-.2196l-1.8108 1.8108c-.1944.1944-.2772.4788-.2124.7488l.1512.648c.1044.4536.1584.9144.1584 1.3716 0 3.3084-2.6928 6.0012-6.0012 6.0012-1.0404 0-2.07-.2736-2.97-.7884l-.7956-.4572c-.3132-.18-.7092-.126-.9648.1296l-7.37637 7.3764c-.342.342-.306.9072.0792 1.1988l1.0872.8316c3.16437 2.4264 6.94797 3.708 10.94037 3.708 9.9252 0 18-8.0748 18-18 0-3.132-.8172-6.2208-2.3688-8.92796h.0072ZM29.0263 3.71288C25.8619 1.28648 22.0783.00488281 18.0859.00488281 8.16074.00488281.0859375 8.07968.0859375 18.0049c0 3.1356.8172005 6.2208 2.3688025 8.928l.7812 1.3644c.2628.4572.8856.54 1.26.1692l1.782-1.782c.27-.27.3096-.6912.1008-1.008-.6516-.9972-1.1736-2.07-1.5516-3.1968h-.0036c-.4824-1.4292-.7344-2.9448-.7344-4.4712-.0036-7.722 6.27836-14.00402 13.99676-14.00402 2.322 0 4.554.558 6.5628 1.6272l-3.0204 3.0204c-1.1268-.4284-2.3292-.648-3.5424-.648-5.5152 0-10.00076 4.48562-10.00076 10.00082 0 .1656.0432.9252.0576 1.0548.1224 1.1484.4428 2.268.9432 3.3012.2412.4968.8964.6084 1.28876.2196l1.8072-1.8072c.1944-.1944.2772-.4788.2124-.7488l-.1512-.648c-.1044-.4536-.1584-.9144-.1584-1.3716 0-3.3084 2.6928-6.0012 6.0012-6.0012 1.0404 0 2.07.2736 2.97.7884l.7956.4572c.3132.18.7092.126.9648-.1296l7.3764-7.37642c.342-.342.306-.9072-.0792-1.1988l-1.0872-.8316ZM59.3455 22.9692c-.27-.2268-.6408-.216-.9468.0216-1.1592.8964-2.4984 1.728-4.4604 1.728-3.5892 0-6.5088-3.024-6.5088-6.7428s2.9088-6.768 6.4836-6.768c1.5552 0 3.2292.6516 4.464 1.7352.2232.2232.4284.2592.5616.252.1224-.0072.2988-.0612.4608-.2628l1.1664-1.2024c.1512-.1548.234-.3528.2268-.558-.0072-.2052-.1008-.3996-.2664-.5508-2.034-1.77476-4.0824-2.56676-6.642-2.56676-5.4648 0-9.9108 4.47476-9.9108 9.97196 0 5.4972 4.446 9.918 9.9108 9.918 2.5704 0 4.8816-.9288 6.6816-2.6856.1548-.1548.2412-.378.234-.5976-.0072-.1908-.0828-.36-.2088-.4716l-1.2456-1.2276v.0072ZM67.8415 8.328h-1.7676c-.3996 0-.7488.3528-.7488.7524v17.8488c0 .3996.3492.7524.7488.7524h1.7676c.3996 0 .7488-.3528.7488-.7524V9.0804c0-.3996-.3492-.7524-.7488-.7524ZM88.7647 14.34c0-3.3156-2.7288-6.012-6.0804-6.012h-7.2864c-.414 0-.7488.3384-.7488.7524v17.8488c0 .414.3384.7524.7488.7524h1.7424c.3996 0 .7488-.3528.7488-.7524v-6.6348h3.654l3.4956 7.0092c.09.18.3312.3744.6444.3744h2.088c.288 0 .5292-.1296.6624-.3564.1368-.2304.1404-.5292.0036-.7812l-3.546-6.6168c2.394-1.0656 3.87-3.186 3.87-5.5908l.0036.0072Zm-3.2688.054c0 1.6812-1.386 3.1032-3.0276 3.1032h-4.5288V11.424h4.5288c1.6416 0 3.0276 1.3572 3.0276 2.9664v.0036ZM107.802 22.9692c-.27-.2268-.641-.216-.947.0216-1.159.8964-2.499 1.728-4.461 1.728-3.5889 0-6.5085-3.024-6.5085-6.7428s2.9088-6.768 6.4835-6.768c1.555 0 3.229.6516 4.464 1.7352.223.2232.429.2592.562.252.122-.0072.299-.0612.461-.2628l1.166-1.2024c.151-.1548.234-.3528.227-.558-.007-.2052-.101-.3996-.267-.5508-2.034-1.77476-4.082-2.56676-6.642-2.56676-5.4645 0-9.9105 4.47476-9.9105 9.97196 0 5.4972 4.446 9.918 9.9105 9.918 2.571 0 4.882-.9288 6.682-2.6856.155-.1548.241-.378.234-.5976-.007-.1908-.083-.36-.209-.4716l-1.245-1.2276v.0072ZM124.07 24.6936h-7.016V9.0804c0-.3996-.35-.7524-.749-.7524h-1.768c-.414 0-.749.3384-.749.7524v17.8488c0 .414.339.7524.749.7524h9.537c.414 0 .752-.3384.752-.7524V25.446c0-.414-.338-.7524-.752-.7524h-.004ZM139.953 11.3449c.414 0 .749-.3384.749-.7524V9.08407c0-.414-.338-.7524-.749-.7524h-10.717c-.414 0-.749.3384-.749.7524V26.9329c0 .414.339.7524.749.7524h10.717c.414 0 .749-.3384.749-.7524v-1.4832c0-.414-.338-.7524-.749-.7524h-8.222v-5.3136h6.912c.414 0 .749-.3384.749-.7524v-1.5084c0-.3996-.35-.7524-.749-.7524h-6.912v-5.0184h8.222v-.0072Z" fill="#fff"/></svg>