<svg width="124" height="24" viewBox="0 0 124 24" fill="none" xmlns="http://www.w3.org/2000/svg"><path d="M26.0015 1.9529C24.0021 1.03845 21.8787.37198 19.6623 0c-.279.48048-.589 1.13144-.806 1.64292-2.3574-.34099-4.6978-.34099-7.0227 0-.217-.51148-.5425-1.16244-.806-1.64292-2.23185.37198-4.35525 1.03845-6.3407 1.9529C.672601 7.8736-.41235 13.6548.130124 19.3585c2.665866 1.9374 5.238766 3.1154 7.766696 3.8904.61997-.837 1.17795-1.736 1.65843-2.6814-.91446-.341-1.78242-.7595-2.61938-1.2555.21699-.1549.43399-.3254.63548-.4959 5.05275 2.3094 10.52555 2.3094 15.51625 0 .217.1705.4185.341.6355.4959-.837.496-1.7049.9145-2.6194 1.2555.4805.9454 1.0385 1.8444 1.6584 2.6814 2.5264-.775 5.1148-1.953 7.7667-3.8904.6664-6.6026-1.0555-12.3373-4.5273-17.4056ZM10.2527 15.8402c-1.51894 0-2.75888-1.3794-2.75888-3.0688s1.20894-3.0689 2.75888-3.0689c1.5344 0 2.7898 1.3795 2.7588 3.0689 0 1.6894-1.2244 3.0688-2.7588 3.0688Zm10.1846 0c-1.519 0-2.7605-1.3794-2.7605-3.0688s1.2105-3.0689 2.7605-3.0689c1.5344 0 2.7898 1.3795 2.7588 3.0689 0 1.6894-1.2089 3.0688-2.7588 3.0688ZM41.2695 4.86621h6.5888c1.5809 0 2.9293.24795 4.0298.74395 1.1004.496 1.9219 1.178 2.4644 2.0614.5424.8835.8214 1.8909.8214 3.03794 0 1.1159-.2789 2.1234-.8524 3.0378-.5735.899-1.4414 1.6274-2.6039 2.1544-1.1624.527-2.6039.7905-4.3243.7905h-6.1238V4.86621Zm6.0463 8.81909c1.0694 0 1.8909-.2635 2.4644-.8059.5735-.527.868-1.271.868-2.1854 0-.85254-.2635-1.53454-.775-2.04594-.5115-.5115-1.2864-.775-2.3249-.775h-2.0614v5.81224h1.8289ZM65.4371 16.6772c-.9145-.2325-1.7359-.5735-2.4644-1.0385v-2.8054c.558.434 1.2864.775 2.2164 1.054.9299.279 1.8289.4185 2.6969.4185.4029 0 .7129-.0465.9144-.155s.31-.2325.31-.3875c0-.1705-.062-.31-.1705-.4185-.1085-.1085-.3255-.2015-.651-.2945l-2.0304-.4494c-1.1624-.2635-1.9839-.651-2.4799-1.116-.4959-.465-.7284-1.1004-.7284-1.87536 0-.651.217-1.2244.6354-1.7049.434-.4805 1.0385-.8525 1.829-1.116.7904-.2634 1.7049-.4029 2.7743-.4029.9455 0 1.8134.093 2.6039.31.7904.2014 1.4414.4649 1.9529.7749V10.121c-.527-.30996-1.1469-.55796-1.8289-.74396-.6975-.186-1.4104-.279-2.1389-.279-1.054 0-1.5809.186-1.5809.5425 0 .1705.0775.2945.248.38746.1705.093.4649.1705.8989.2635l1.6894.31c1.1005.1859 1.9219.5269 2.4644 1.0074.5425.4805.806 1.1779.806 2.1234 0 1.023-.4495 1.8444-1.3485 2.4334-.8989.6045-2.1699.8989-3.8128.8989-.9609-.031-1.8909-.155-2.8053-.3874ZM77.5897 16.3211c-.961-.4805-1.7049-1.1159-2.1854-1.9219-.496-.806-.7285-1.7204-.7285-2.7434 0-1.0074.248-1.92189.7595-2.71229.5115-.806 1.2554-1.426 2.2319-1.8909.9764-.4495 2.1544-.682 3.5183-.682 1.6894 0 3.0844.3565 4.2003 1.0694v3.08439c-.3875-.2635-.8524-.496-1.3794-.65099-.527-.1705-1.085-.248-1.6739-.248-1.054 0-1.8599.186-2.4644.57349-.589.3875-.8835.8835-.8835 1.5034 0 .6045.279 1.1005.868 1.488.5734.3874 1.4104.5889 2.4954.5889.5579 0 1.1159-.0775 1.6584-.248.5425-.1705 1.0229-.3564 1.4104-.6044v2.9913c-1.24.744-2.6814 1.116-4.3088 1.116-1.3794 0-2.5419-.248-3.5183-.713ZM89.8038 16.3211c-.9765-.4805-1.7204-1.1159-2.2319-1.9374-.5115-.8215-.775-1.7359-.775-2.7589 0-1.0074.2635-1.92189.775-2.71229.5115-.7905 1.2554-1.4105 2.2164-1.8599.9609-.4495 2.1233-.682 3.4578-.682 1.333 0 2.4954.217 3.4564.682.9609.4494 1.7049 1.0694 2.2164 1.8599.5114.7904.7594 1.68939.7594 2.71229 0 1.0075-.248 1.9374-.7594 2.7589-.5115.8215-1.24 1.4724-2.2164 1.9374-.9765.465-2.1234.713-3.4564.713-1.319 0-2.4659-.248-3.4423-.713Zm5.1317-2.9914c.403-.4029.62-.9609.62-1.6274 0-.6819-.2015-1.2089-.62-1.6119-.4184-.40299-.9764-.60449-1.6739-.60449-.7284 0-1.288.2015-1.7064.60449-.403.403-.62.93-.62 1.6119 0 .682.2015 1.2245.62 1.6274.4184.4185.978.62 1.7064.62.6975-.0155 1.271-.217 1.6739-.62ZM110.048 6.9903v3.6424c-.434-.279-.992-.4185-1.674-.4185-.899 0-1.597.279-2.077.8214-.481.5425-.729 1.395-.729 2.5419v3.0999h-4.138V6.8198h4.061v3.1464c.217-1.147.589-1.9994 1.085-2.5419s1.147-.8369 1.937-.8369c.589 0 1.101.1395 1.535.4029ZM123.998 4.52539V16.6923h-4.138v-2.2164c-.357.837-.884 1.4725-1.597 1.9064-.714.434-1.598.651-2.652.651-.93 0-1.751-.2325-2.449-.682-.697-.4494-1.239-1.0849-1.611-1.8754-.372-.8059-.558-1.7049-.558-2.6968-.016-1.0385.186-1.96844.604-2.78994.403-.8214.992-1.4569 1.736-1.9219.744-.465 1.596-.6975 2.557-.6975 1.969 0 3.288.8525 3.97 2.5729V4.52539h4.138Zm-4.758 8.72611c.418-.403.635-.9455.635-1.5964 0-.6355-.201-1.147-.62-1.5344-.418-.38754-.976-.58904-1.675-.58904-.698 0-1.256.2015-1.674.60454-.419.4029-.62.9144-.62 1.5654 0 .6509.201 1.1624.62 1.5654.418.403.961.6045 1.658.6045.699 0 1.257-.2015 1.676-.62ZM58.9903 7.40898c1.1887 0 2.1544-.8675 2.1544-1.9374 0-1.07006-.9657-1.9374-2.1544-1.9374-1.1904 0-2.1544.86734-2.1544 1.9374 0 1.0699.964 1.9374 2.1544 1.9374ZM61.1447 8.74121c-1.3175.5734-2.9604.5889-4.3088 0v7.95109h4.3088V8.74121Z" fill="#fff"/></svg>