<svg width="96" height="44" viewBox="0 0 96 44" fill="none" xmlns="http://www.w3.org/2000/svg"><path d="M40.8543 23.9101c0 4.4417-3.5259 7.7148-7.8529 7.7148-4.3271 0-7.853-3.2731-7.853-7.7148 0-4.473 3.5259-7.7148 7.853-7.7148 4.327 0 7.8529 3.2418 7.8529 7.7148Zm-3.4376 0c0-2.7757-2.0436-4.6748-4.4153-4.6748-2.3718 0-4.4153 1.8991-4.4153 4.6748 0 2.7478 2.0435 4.6748 4.4153 4.6748 2.3717 0 4.4153-1.9305 4.4153-4.6748ZM57.7957 23.9101c0 4.4417-3.5259 7.7148-7.853 7.7148-4.327 0-7.8529-3.2731-7.8529-7.7148 0-4.4696 3.5259-7.7148 7.8529-7.7148 4.3271 0 7.853 3.2418 7.853 7.7148Zm-3.4377 0c0-2.7757-2.0435-4.6748-4.4153-4.6748-2.3717 0-4.4153 1.8991-4.4153 4.6748 0 2.7478 2.0436 4.6748 4.4153 4.6748 2.3718 0 4.4153-1.9305 4.4153-4.6748ZM74.0304 16.6614v13.8504c0 5.6974-3.4094 8.0244-7.44 8.0244-3.7941 0-6.0776-2.5009-6.9388-4.5461l2.993-1.2278c.5329 1.2556 1.8388 2.7374 3.9423 2.7374 2.58 0 4.1788-1.5687 4.1788-4.5218v-1.1095h-.12c-.7694.9356-2.2517 1.753-4.1223 1.753-3.9141 0-7.5-3.36-7.5-7.6835 0-4.3548 3.5859-7.7426 7.5-7.7426 1.867 0 3.3494.8174 4.1223 1.7252h.12v-1.2556h3.2647v-.0035Zm-3.0211 7.2765c0-2.7165-1.8389-4.7026-4.1789-4.7026-2.3717 0-4.3588 1.9861-4.3588 4.7026 0 2.6887 1.9871 4.647 4.3588 4.647 2.34 0 4.1789-1.9583 4.1789-4.647ZM79.4115 8.54297V31.1517h-3.3529V8.54297h3.3529ZM92.4778 26.4488l2.6683 1.753c-.8612 1.2557-2.9365 3.4192-6.5224 3.4192-4.4471 0-7.7682-3.3879-7.7682-7.7148 0-4.5878 3.3494-7.7148 7.3835-7.7148 4.0624 0 6.0494 3.1861 6.6988 4.9078l.3565.8766-10.4647 4.2713c.8012 1.5478 2.047 2.3373 3.7941 2.3373 1.7506 0 2.9647-.8486 3.8541-2.1356Zm-8.2129-2.7757 6.9953-2.8626c-.3847-.9634-1.5424-1.6347-2.9047-1.6347-1.7471 0-4.1789 1.52-4.0906 4.4973ZM12.4532 21.9041V18.631H23.645c.1094.5705.1658 1.2452.1658 1.9757 0 2.4556-.6811 5.4921-2.8764 7.6556-2.1353 2.1913-4.8636 3.36-8.4777 3.36C5.75794 31.6223.125 26.2449.125 19.6432c0-6.6017 5.63294-11.97914 12.3317-11.97914 3.7059 0 6.3459 1.43305 8.3294 3.30084l-2.3435 2.3096c-1.4224-1.3148-3.3494-2.3374-5.9894-2.3374-4.89173 0-8.71761 3.8852-8.71761 8.7061 0 4.8209 3.82588 8.7061 8.71761 8.7061 3.1729 0 4.98-1.2557 6.1376-2.3965.9389-.9253 1.5565-2.247 1.8-4.0522l-7.9376.0035Z" fill="#fff"/></svg>