<svg width="99" height="31" viewBox="0 0 99 31" fill="none" xmlns="http://www.w3.org/2000/svg"><path d="M7.56859 7.4383H8.7032v17.1888c0 3.8059-2.97645 6.374-8.7032 6.374v-3.6144c2.45897 0 3.6875-1.0144 3.6875-3.077V7.4383h3.88109ZM4.23756 4.64676c-.26119-.24974-.46876-.54817-.61049-.87772-.14172-.32957-.21474-.68359-.21474-1.04123 0-.35764.07302-.71167.21474-1.04123.14173-.32957.3493-.62799.61049-.877724.25478-.256012.55925-.459464.89549-.598378C5.46929.0715648 5.83047 0 6.19536 0c.36488 0 .72607.0715648 1.06229.210478.33624.138914.64071.342366.89549.598378.2612.249734.46878.548154.6105.877724.14172.32956.21473.68359.21473 1.04123 0 .35764-.07301.71166-.21473 1.04123-.14172.32955-.3493.62798-.6105.87772-.25478.25601-.55925.45947-.89549.59837-.33622.13892-.69741.21048-1.06229.21048-.36489 0-.72607-.07156-1.06231-.21048-.33624-.1389-.64071-.34236-.89549-.59837ZM23.2246 7.4375h5.0158v16.2683h-5.0158v-2.3782c-.7593.8648-1.7037 1.555-2.766 2.0216-1.0624.4666-2.2165.698-3.3804.6779-3.7546 0-6.2462-2.2825-6.2462-6.5637V7.44126h5.0176v8.15114c0 2.8177 1.1327 4.2492 3.4308 4.2492 2.2002 0 3.9462-1.6813 3.9462-5.012l-.002-7.3921ZM59.5361 13.6961v10.0202h-5.0138v-8.3089c0-2.7276-1.0682-4.0909-3.2046-4.0896-2.0699 0-3.8504 1.7114-3.8504 5.0102v7.3883h-5.0158v-8.3089c0-2.7276-1.0674-4.0909-3.2025-4.0896-2.0699 0-3.8504 1.7114-3.8504 5.0102v7.3883h-5.0158V7.44796h5.0158v2.34633c1.6502-1.77525 3.5917-2.66381 5.8896-2.66381 2.9113 0 4.7915 1.11023 5.6616 3.33072 1.7812-2.22675 3.9169-3.34011 6.4072-3.34011 3.8504 0 6.1791 2.02884 6.1791 6.57501ZM78.1815 9.34055c1.6176 1.52165 2.4264 3.58235 2.4264 6.21615 0 2.6337-.8088 4.6964-2.4264 6.1842-1.6176 1.5216-3.6569 2.2825-6.1484 2.2825-2.2002 0-3.9801-.6976-5.3396-2.0927v8.7541h-5.0138V7.43756h5.0138V9.1865c1.3595-1.39389 3.1394-2.09147 5.3396-2.09272 2.4915-.00563 4.5308.75519 6.1484 2.24677Zm-2.8154 6.21615c0-2.9174-1.8438-4.8523-4.3353-4.8523-2.4591 0-4.3373 1.8391-4.3373 4.8523 0 3.0132 1.8782 4.8523 4.3373 4.8523 2.4915 0 4.3353-1.9348 4.3353-4.8523ZM98.3973 19.209v3.8419H82.7188V19.209h15.6785Z" fill="#fff"/></svg>