<svg width="574" height="120" viewBox="0 0 574 120" fill="none" xmlns="http://www.w3.org/2000/svg"><path d="m92.5908 87.9712-63.1976 3.9202c-6.1196.057-10.6096-2.716-10.7121-6.5792v-.1102L27.0228.982788c-.0645-.44063-.9344-.809109-1.9639-.831909C14.3544 3.36452 2.51033 7.20493.53125 8.35211l2.2108 92.98689c.09876 4.026 5.2155 8.315 16.24285 8.227l74.1871 1.607c.6688-.002 1.3136-.249 1.8119-.695.0869-.075.1469-.176.171-.289l-.5166-21.3442c-.003-.2089-.7598-.8736-2.0475-.8736ZM116.165 10.8021c0-.4482-.892-.93062-2.309-.93442L99.2654 13.3548h-.1026c-.8395 0-1.6524.2583-2.0208.6382-.0487.0396-.0882.0894-.1157.1458-.0276.0564-.0426.1181-.0439.1809l4.1786 88.3943c.03.25.984.995 2.279.995l11.567-.114c.786.043 1.561-.207 2.173-.703.088-.071.148-.17.171-.281l-1.186-91.8089ZM190.732 47.6488h-.144l-27.171 2.7844c-5.835.0532-10.599 1.6866-13.417 4.5963-.925.9412-1.646 2.0627-2.118 3.2945-.473 1.2319-.687 2.5478-.629 3.8659l.111 4.866c0 .4901.866 1.2384 1.861 1.2422l10.169-.1064c.614-.0125 1.2-.2599 1.637-.6913.156-.1402.257-.3314.285-.5394l-.049-2.0133c-.054-2.0664.528-3.7416 1.724-4.9762 1.52-1.5574 3.954-2.3627 7.286-2.3893l4.308-.038h.132c5.698 0 9.421 2.811 9.535 7.1832l.068 3.2022c.007.8665-.161 1.7254-.495 2.5251-.333.7997-.825 1.5236-1.446 2.1282-1.762 1.8196-4.52 2.925-7.377 2.9592l-10.997.0912c-5.88.0456-10.636 1.641-13.401 4.4899-.933.9594-1.658 2.1002-2.131 3.3515-.473 1.2514-.684 2.5866-.619 3.9229l.201 8.0341c.137 5.8763 6.594 12.9153 14.435 12.9153h.083l26.887-1.519c2.115.005 4.211-.407 6.167-1.213 1.955-.807 3.732-1.991 5.229-3.486 2.188-2.2568 3.358-4.9614 3.293-7.5976v-.0456l1.03-36.3832c-.149-5.9904-6.344-10.4538-14.447-10.4538Zm1.471 48.0374c-1.733 1.7929-4.43 2.7957-7.598 2.8261l-6.366.0684h-.076c-5.732 0-9.793-3.0389-9.877-7.4377v-1.0598c-.057-2.226.585-4.1025 1.854-5.413 1.413-1.4625 3.54-2.2184 6.325-2.2412l7.977-.0266h.099c6.484 0 9.466 3.7264 9.542 7.4339l.026 1.0636c.024.8855-.133 1.7665-.46 2.5894-.328.8229-.82 1.5704-1.446 2.1969ZM330.119 42.1522c-1.88-2.7464-5.219-6.0094-10.347-5.9752l-27.445.2431c-5.66.0456-9.611 2.906-11.928 5.2991-3.525 3.6391-5.652 8.6609-5.55 13.1053l.133 5.2534c0 .5622.919 1.4207 2.097 1.4207l6.898-.0532c.687-.0208 1.34-.3019 1.827-.7863.187-.1629.304-.3914.327-.6381l-.042-2.1994c-.049-2.2184.57-4.0152 1.846-5.3181 1.615-1.6676 4.255-2.5337 7.845-2.5755l8.816-.0646c6.211-.0608 10.257 2.963 10.393 7.7074l.072 3.4643c.012.9327-.166 1.8579-.523 2.7198-.356.8618-.884 1.6424-1.551 2.2944-1.899 1.9639-4.877 3.1529-7.977 3.1757l-11.905.1101c-5.116.0342-8.634 1.1168-10.757 3.3048-1.964 2.0285-2.826 5.0446-2.716 9.4966l.209 8.7368c.182 7.5972 4.095 11.3957 11.65 11.3317h.046l29.249 2.548c5.318-.057 10.059-1.861 13.06-4.9377 1.994-2.0589 3.039-4.509 2.97-7.0959l-3.005-39.4752c-.193-3.9654-1.47-7.8019-3.692-11.092Zm-9.223 50.1798c-1.162 1.1966-2.94 1.7854-5.436 1.8006l-6.894.0798h-.141c-6.142 0-10.495-3.2669-10.613-7.9771l-.027-1.1738c-.029-.946.135-1.888.481-2.7689s.867-1.6822 1.533-2.3554c1.899-1.9449 4.854-3.0389 8.357-3.0655l7.073-.0418h.152c6.932 0 7.054 4.4292 7.149 7.9771l.03 1.1396c.068 2.2639-.106 4.7672-1.664 6.3854ZM400.143 20.3784h-.072l-29.12.2394c-1.03-.008-2.051.1956-2.999.5981-.948.4025-1.804.9954-2.513 1.7418-2.279 2.3628-3.484 6.3209-3.373 11.149l.471 19.297c.197 8.1594 3.924 13.4015 9.523 13.3597l26.442-.2317c2.089 0 4.178-1.0067 5.903-2.7768 2.348-2.4273 3.65-5.9448 3.567-9.6599v-.0798l1.451-21.2723c-.171-6.9477-4.236-12.3645-9.28-12.3645Zm-7.719 26.7196c-1.576 1.641-4.091 2.7995-6.119 2.8185l-7.457.0646h-.05c-3.312 0-5.432-2.7616-5.538-7.2173l-.11-5.0902c-.065-2.4349.543-4.3912 1.762-5.6524.455-.4664.999-.8356 1.601-1.085.601-.2495 1.247-.374 1.898-.366l10.139-.1064h.022c3.172 0 5.543 3.0883 5.649 7.3541l.083 4.7407c.01.8445-.151 1.6823-.474 2.4625-.323.7803-.802 1.4868-1.406 2.0769ZM491.113 87.7357c-.044-.2553-.179-.4859-.38-.6496-.553-.5064-1.264-.8068-2.013-.8509h-.038l-33.139.2887c-2.925-.076-4.266-1.584-4.559-2.9705-.353-1.679.677-3.358 2.625-4.2772l33.136-15.7947c2.484-1.2574 3.707-3.5327 3.62-6.7426l-.445-18.7842c-.049-1.5194-.824-1.5194-1.238-1.5194h-.076l-71.137-5.5574c-.904.0266-1.804.7901-1.8 1.5195v.1216l-2.599 20.3454c.061.7331 1.018 1.4776 1.9 1.4662l55.361-.4748c2.138-.0266 3.768.9572 4.136 2.4995.278 1.1662-.216 2.7958-2.427 3.8746l-.057.0266-36.391 14.712c-2.545 1.1662-3.342 2.6591-3.266 6.15l1.546 21.0405c0 .779 1.025 1.66 1.899 1.66l53.344-.463c.721-.076 1.392-.401 1.899-.92.222-.196.365-.466.403-.759l-.304-13.9413Z" fill="#fff"/><path d="M74.0241 30.1334h-.038l-25.4128-2.0171c-6.9325.0684-12.562 1.8196-15.449 4.8091-.7146.7038-1.2764 1.5473-1.6503 2.4781-.3739.9307-.5517 1.9285-.5225 2.9311v.0646l-4.3304 35.4297c.1747 6.5147 3.5593 9.5688 11.6618 10.5336l37.1391-3.6846c8.3227-.3989 16.6379-4.0266 16.4594-11.2288l.3381-29.4127c-.1672-6.0892-7.2858-9.9941-18.1954-9.903Zm5.5384 34.4193c-.0033.7302-.1517 1.4525-.4367 2.1249-.285.6723-.7008 1.2813-1.2233 1.7915-1.8651 1.9297-4.9952 3.0389-8.5849 3.0806l-4.8319.0571h-.1937c-8.2734 0-10.0853-3.1263-10.1385-5.7663l-.4027-16.8584c-.0282-.7277.0919-1.4536.3532-2.1334.2612-.6798.658-1.2993 1.1663-1.8209 1.6942-1.7512 4.6457-2.6932 8.5355-2.7236l7.4339-.0722c6.0778-.0494 9.9106 2.4425 10.0018 6.4918v.057l-1.679 15.7719ZM141.509 31.4326c0-.4635-.938-.9611-2.423-.9535h-.035l-13.675-.9876c-.813 0-1.626.2773-1.986.6495-.046.0362-.083.0824-.108.1351-.025.0527-.038.1105-.037.1688l-.167 79.5201c.042.24.976.942 2.234.942l14.67-.133c.788.046 1.564-.205 2.177-.702.085-.07.145-.166.171-.274l-.821-78.3654ZM354.38 18.5818l-16.732.1291c-.58.0025-1.15.1556-1.653.4445-.135.067-.253.1653-.343.2869-.09.1215-.149.2628-.173.412l7.107 82.3847c0 .338.999 1.158 2.256 1.139l11.563-.11c.776.038 1.538-.223 2.127-.729.128-.113.21-.268.232-.437l-1.952-82.3844c-.027-.6686-1.049-1.151-2.432-1.1358ZM407.633 70.8203l-22.275.1937c-7.719.0608-13.675 1.6714-16.335 4.4178-.449.4282-.806.9443-1.047 1.516-.242.5718-.364 1.1871-.358 1.8078v.0608l-2.591 22.2146c.228 6.176 8.787 8.296 16.756 8.216l30.043-.243c6.055-.061 16.232-1.295 16.471-8.839l-2.579-21.7398c-1.345-5.2041-7.286-7.6922-18.085-7.6049Zm4.349 24.3682c-.38 4.4975-5.117 4.5583-9.303 4.6039l-9.876.076h-1.417c-2.659 0-4.653-.1595-5.895-1.3865-.76-.7407-1.14-1.7778-1.14-3.1718v-.1064l.023-.1026 2.499-10.7273c.016-.847.361-1.6547.961-2.2526 1.763-1.8233 5.432-2.2412 8.205-2.2791l6.64-.0608h.224c8.095 0 8.79 3.4187 8.809 4.4634l.259 10.8716.011.0722ZM253.189 29.2634h-.061l-67.27-3.9467c-.062.0055-.123.0235-.178.0528-.056.0294-.105.0696-.145.1181-.38.3799-.604 1.2156-.585 2.1158l.304 13.0901c.031 1.3903.475 2.4387 1.037 2.4843l20.494-2.4273c1.212 0 2.378.8319 3.145 2.3133l.106.2013-1.116 75.3879c.03.649.961 1.162 2.074 1.139l12.098-.11c.882 0 1.588-.217 1.93-.57.073-.073.131-.16.17-.256.038-.096.057-.199.054-.302l-2.587-22.2677c-.006-.4656.084-.9274.263-1.3572.179-.4298.444-.8185.778-1.1423 1.14-1.1396 3.039-1.8537 5.117-1.8727h.042l28.018 2.4159c5.003-.0418 10.488-.4749 13.318-3.3656 1.546-1.5802 2.279-3.7986 2.234-6.8185l-1.003-42.5825c-.186-7.2212-7.852-12.3911-18.237-12.3Zm5.014 51.2168c-1.641 1.7018-4.251 2.659-7.347 2.6894l-6.909.0532h-.175c-5.74 0-10.112-3.0655-10.196-7.1832l-.592-24.691c-.011-.7878.138-1.5696.437-2.2982.3-.7287.744-1.389 1.306-1.9411 1.831-1.8993 4.863-3.0008 8.312-3.0388l6.91-.0685c5.599-.0342 9.405 2.811 9.496 7.0883l.585 24.6644c.034.8707-.111 1.739-.425 2.5516s-.791 1.5524-1.402 2.1739ZM573.455 99.9899l-1.394-9.8536c-.111-.9534-.411-1.6942-.798-1.9981-.106-.0907-.241-.1394-.38-.1367-4.558 1.1965-12.395 2.9325-14.009 1.2953-.452-.4748-1.189-1.2459-.787-21.7205.19-9.6827.559-19.3084.582-19.8972-.179-7.3769-7.054-12.8735-15.981-12.7937l-28.429 1.3903c-2.245.018-4.462.4908-6.519 1.3899-2.056.899-3.909 2.2056-5.447 3.8408-3.57 3.696-5.633 8.8128-5.512 13.675l.114 5.8651c.023.7597 1.022 1.6866 2.097 1.6638l10.013-.095c.646-.0227 1.257-.2951 1.706-.7598.264-.236.427-.5657.452-.9192l-.076-2.8452c-.061-2.8984-.11-5.1927 1.326-6.6704 1.025-1.0522 2.701-1.5498 5.268-1.565l8.813-.0988h.103c6.131 0 10.173 3.3352 10.313 8.5127l.072 3.8518c.038 1.3789-.307 2.4121-1.048 3.1529-1.406 1.4055-3.856 1.3485-6.693 1.2763-.646 0-1.311-.0304-1.991-.0304h-.38l-11.924.0988c-6.077.0494-11.08 1.8081-14.119 4.9382-2.37 2.4463-3.521 5.6106-3.419 9.4016l.217 9.7055c.167 7.016 7.187 12.6757 15.677 12.6757h.152l29.169-.258h.426l31.714-.95c.14-.029.263-.112.342-.231.338-.576.462-1.253.35-1.9111Zm-30.192-8.7368c-1.869 1.9335-4.68 3.0161-7.912 3.0389l-6.902.0456h-.111c-6.168 0-10.537-3.5935-10.636-8.7748l-.034-1.2725c-.042-1.0896.139-2.1762.531-3.1937s.987-1.9445 1.748-2.7246c1.9-1.9525 4.764-3.0389 8.099-3.0769l7.081-.0646c7.046-.0608 10.309 4.3646 10.4 8.7748l.05 1.265c.039 1.099-.146 2.1945-.544 3.2197-.398 1.0253-1 1.9589-1.77 2.7441v.019ZM560.292 40.1807l-.026-1.5195h.315c.079-.01.16-.004.237.0175.077.0215.149.0582.211.1079.244.2392.441.5212.582.8319l.307.5584h.669l-.426-.6951c-.142-.2589-.312-.501-.509-.7218-.086-.0776-.183-.1417-.288-.1899.133-.0083.263-.0432.382-.1026.12-.0593.226-.142.313-.2431.164-.1934.251-.4413.243-.6952-.012-.1877-.068-.3699-.163-.5318-.109-.1585-.264-.2793-.445-.3456-.281-.0796-.574-.1117-.866-.095h-1.14l.084 3.6467.52-.0228Zm.578-3.1453c.183-.0077.367.0142.543.0646.09.043.167.1084.224.19.064.0812.099.1815.099.2849.002.0721-.012.1437-.042.2095-.03.0657-.074.124-.129.1703-.188.1359-.419.1968-.65.171h-.668l-.031-1.1092.654.0189Z" fill="#fff"/><path d="M559.609 41.2481c.475.2731 1.013.4183 1.561.4216.545-.0026 1.079-.1564 1.542-.4444.491-.3017.88-.7436 1.117-1.2687.257-.5262.385-1.1061.372-1.6916-.012-.5854-.165-1.1594-.444-1.674-.269-.5243-.688-.9567-1.204-1.2422-.46-.2751-.984-.4257-1.52-.4368-.536.0181-1.059.1724-1.519.4482-.489.3083-.884.7461-1.14 1.265-.257.5298-.388 1.1126-.38 1.7018.02.5841.173 1.1559.449 1.6714.27.5134.672.945 1.166 1.2497Zm-.798-4.3456c.203-.4355.533-.7996.946-1.0447.376-.246.816-.3779 1.265-.3798.453-.0008.899.1184 1.292.3457.424.2424.767.6044.987 1.0408.246.4276.384.9087.403 1.4017.001.487-.109.9678-.323 1.4055-.192.4419-.521.8107-.938 1.0522-.378.248-.821.3801-1.273.3799-.474-.0049-.938-.1364-1.344-.3808-.406-.2444-.739-.593-.965-1.0095-.241-.4299-.372-.9128-.38-1.4055-.01-.484.104-.9624.33-1.3903v-.0152Z" fill="#fff"/></svg>