<svg width="157" height="27" viewBox="0 0 157 27" fill="none" xmlns="http://www.w3.org/2000/svg"><path d="M121.361 16.813h-2.7c-.209-.0053-.407-.0895-.555-.2351-.148-.1456-.233-.3416-.239-.5476v-.6261c.006-.2058.091-.4018.239-.5475.148-.1456.346-.2298.555-.235h2.309c.21 0 .412-.0825.561-.2293.149-.1467.233-.3458.233-.5534 0-.2075-.084-.4066-.233-.5534-.149-.1467-.351-.2292-.561-.2292h-2.33c-.209-.0052-.407-.0894-.555-.2351-.148-.1456-.234-.3416-.239-.5475v-.6261c.005-.2058.091-.4019.239-.5475.148-.1457.346-.2298.555-.2351h2.647c.211 0 .413-.0824.562-.2292.149-.1468.232-.3458.232-.5534 0-.20749-.083-.40659-.232-.55339-.149-.1468-.351-.2292-.562-.2292h-3.176c-.124-.0025-.245.038-.342.1143-.097.0762-.163.1835-.188.3031l-1.694 7.87829v.1565c.03.1829.128.3483.275.464.147.1157.332.1735.519.1621h4.659c.211 0 .413-.0825.562-.2292.149-.1468.232-.3459.232-.5534 0-.2076-.083-.4067-.232-.5534-.149-.1468-.351-.2292-.562-.2292h.021ZM62.5986 9.35205h-1.0589c-.1556.0019-.3081.047-.4388.13-.1313.083-.2356.2007-.3023.3395l-2.3294 5.53055c0 .0138-.0059.0271-.0154.0369-.01.0098-.0233.0152-.0376.0152-.0529 0-.0529 0-.0529-.0521l-2.3294-5.53055c-.0567-.1411-.1477-.2665-.2647-.3652-.2118-.1565-.4765.0522-.5294.3131l-1.7471 7.98265c-.0138.0903.0048.1827.0529.2609.0636.1261.1615.232.2833.3058.1217.0738.262.1125.405.1116h.3176c.2054-.0105.3987-.0969.5421-.242.1435-.1452.2256-.3383.2309-.5408v-5.1129c0-.0139.0058-.0271.0153-.0369.0101-.0098.0233-.0153.0376-.0153s.0275.0055.0376.0153c.0095.0098.0153.023.0153.0369l2.1706 5.3739c.0577.1452.1604.2687.2933.353.1334.0843.2901.1251.4479.1166h.2118c.1556-.002.3081-.0471.4389-.1301.1312-.083.2355-.2006.3022-.3395l2.1706-5.3217c0-.0139.0059-.0272.0154-.037.01-.0098.0233-.0152.0376-.0152s.0275.0054.0376.0152c.0095.0098.0153.0231.0153.037v5.0607c.0053.2059.0905.402.2388.5476.1477.1456.3462.2299.5553.2352h.3177c.2091-.0053.4076-.0896.5553-.2352.1483-.1456.2335-.3417.2388-.5476v-7.5129c-.0365-.20875-.1424-.39925-.3018-.54125-.1598-.1419-.3626-.2269-.577-.2414ZM86.8457 13.5781h-2.3294c-.1964 0-.3849.077-.5241.214-.1392.1369-.217.3227-.217.5165 0 .1937.0778.3794.217.5165.1392.1369.3277.2139.5241.2139h.4236c.4235 0 .847.3652.6352.7826-.3176.6783-.9529 1.0434-1.9588 1.0434-1.4823 0-2.3823-1.0956-2.3823-2.9738 0-1.8783.9529-2.9739 2.3823-2.9739.3314-.0169.6618.051.9588.1974.297.1463.55.3659.7353.6373.0826.1521.2044.2803.3532.3718.1487.0915.3187.1432.4939.15h.4765c.1069.0085.2149-.0087.3134-.0503.099-.0416.1858-.1063.2536-.1885.0677-.0822.1143-.1794.1355-.2833.0212-.1038.0159-.2112-.0143-.3127-.3303-.6841-.8582-1.2568-1.5173-1.64663-.6596-.3898-1.4204-.5793-2.1886-.5447-2.4353 0-4.2882 1.72173-4.2882 4.64353 0 2.9217 1.747 4.6434 4.3412 4.6434 2.3294 0 3.9706-1.4609 3.9706-3.8086v-.3653c.0021-.1033-.017-.2061-.0562-.302-.0391-.0959-.0974-.183-.1715-.2561-.0741-.0731-.1625-.1307-.2599-.1692-.0974-.0386-.2017-.0574-.3066-.0553ZM73.0783 9.87375c-.0545-.1514-.1546-.2827-.2869-.376-.1329-.0933-.2912-.1442-.4543-.1457h-1.3764c-.1631.0015-.3214.0524-.4543.1457-.1323.0933-.2324.2246-.2869.376l-2.6471 7.51315c-.0397.1174-.0508.2424-.0328.3649.018.1225.0651.2391.1371.3406.072.1014.1673.1847.278.2434.1101.0587.2334.0911.3589.0946h.4235c.1631-.0016.3214-.0526.4543-.1459.1323-.0933.2324-.2245.2869-.3759l.3177-.9914c.0545-.1514.1546-.2826.2869-.3759.1329-.0933.2912-.1443.4543-.1458h2.1705c.1631.0015.3214.0525.4543.1458.1323.0933.2324.2245.2869.3759l.3177.9914c.0545.1514.1546.2826.2869.3759.1329.0933.2912.1443.4542.1459h.4236c.1254-.0035.2488-.0359.3589-.0946.1107-.0587.2059-.142.2779-.2434.072-.1015.1192-.2181.1372-.3406.018-.1225.0069-.2475-.0329-.3649l-2.5941-7.51315Zm-1.3447 4.95665h-.1588c-.1255-.0035-.2488-.0358-.3595-.0945-.1101-.0587-.2054-.1422-.2774-.2436-.072-.1015-.1191-.218-.1371-.3405-.018-.1225-.0069-.2476.0328-.365l.7941-2.4c0-.0138.0059-.0271.0154-.0369.01-.0097.0233-.0152.0376-.0152s.0275.0055.0376.0152c.0095.0098.0153.0231.0153.0369l.7941 2.4c.0286.1211.0302.247.0043.3687-.0254.1217-.0784.2364-.1541.3359-.0757.0994-.1726.1813-.2838.2399-.1117.0585-.2345.0924-.3605.0991ZM92.985 9.35205h-.3706c-.2091.0052-.4076.0894-.5553.2351-.1483.1456-.2335.3416-.2388.54755v7.5129c.0053.2059.0905.402.2388.5476.1477.1456.3462.2299.5553.2352h.3706c.2091-.0053.4076-.0896.5554-.2352.1482-.1456.2334-.3417.2387-.5476v-7.5129c-.0137-.20325-.1016-.39455-.2477-.53845-.1462-.144-.3405-.2307-.5464-.2442ZM102.252 10.9175c.356-.0097.71.0717 1.025.2363.315.1645.582.4067.775.7028.068.1817.191.3387.351.4505.161.1117.352.173.549.1756h.37c.107.0086.215-.0087.314-.0503s.185-.1063.253-.1884c.068-.0823.115-.1795.136-.2833.021-.1039.016-.2112-.015-.3128-.529-1.5652-1.958-2.4521-3.811-2.4521-2.4358 0-4.2888 1.6695-4.2888 4.6434 0 2.9739 1.8 4.6435 4.2888 4.6435 1.958 0 3.282-1.0435 3.758-2.3478.031-.1016.036-.2089.015-.3128-.021-.1038-.068-.201-.136-.2832s-.154-.1469-.253-.1885-.207-.0589-.314-.0503h-.423c-.193.0168-.378.0835-.536.1935-.158.1099-.284.2592-.364.4326-.177.2988-.433.5442-.741.7097-.308.1656-.656.245-1.006.2294-1.377 0-2.3298-1.0435-2.3298-2.9739s.9528-2.9739 2.3828-2.9739ZM129.673 9.35205h-2.488c-.209.0052-.408.0894-.555.2351-.149.1456-.234.3416-.239.54755v7.5129c.005.2059.09.402.239.5476.147.1456.346.2299.555.2352h2.488c2.806 0 4.5-1.7219 4.5-4.5393s-1.747-4.53905-4.5-4.53905Zm-.106 7.40865h-.423c-.209-.0053-.408-.0894-.556-.235-.148-.1457-.233-.3416-.238-.5475v-4.2261c.005-.2059.09-.4019.238-.5476.148-.1456.347-.2298.556-.2351h.423c1.747 0 2.647.887 2.647 2.8696 0 1.9826-.9 2.9217-2.647 2.9217ZM143.703 16.8129h-2.7c-.21-.0053-.408-.0895-.556-.2351-.148-.1456-.233-.3416-.239-.5476v-.626c.006-.2059.091-.4019.239-.5476.148-.1456.346-.2298.556-.235h2.329c.211 0 .412-.0825.562-.2293.148-.1467.232-.3458.232-.5534 0-.2075-.084-.4066-.232-.5533-.15-.1468-.351-.2293-.562-.2293h-2.329c-.21-.0052-.408-.0894-.556-.235-.148-.1457-.233-.3417-.239-.5476v-.626c.006-.2059.091-.402.239-.5476.148-.1457.346-.2298.556-.2351h2.647c.21 0 .412-.0824.561-.2292.149-.1468.233-.3458.233-.5533 0-.2076-.084-.4067-.233-.5534-.149-.1468-.351-.2293-.561-.2293h-4.606c-.209.0053-.408.0894-.556.2351-.148.1456-.233.3416-.238.5476v7.513c.005.2059.09.4019.238.5475.148.1457.347.2298.556.2351h4.659c.209-.0053.407-.0894.555-.2351.148-.1456.233-.3416.239-.5475.002-.1034-.017-.2061-.056-.302-.04-.096-.098-.1831-.172-.2562-.074-.0731-.163-.1306-.26-.1692-.097-.0386-.202-.0574-.306-.0552ZM155.669 9.35205h-.37c-.209.0052-.408.0894-.556.2351-.148.1456-.233.3416-.238.54755v4.852c0 .0522 0 .0522-.053.0522h-.053l-3.706-5.32165c-.072-.0994-.167-.18-.278-.2345-.111-.0546-.234-.0816-.357-.0785h-.498c-.209.0052-.408.0894-.555.235-.149.1457-.234.3416-.239.54765v7.513c.005.2059.09.4019.239.5475.147.1457.346.2298.555.2351h.37c.21-.0053.408-.0894.556-.2351.148-.1456.233-.3416.239-.5475v-4.9043c0-.0139.005-.0272.015-.037.01-.0098.023-.0152.038-.0152h.052l3.759 5.3217c.072.0994.168.18.278.2345.111.0546.234.0816.358.0786h.476c.209-.0053.408-.0895.555-.2351.149-.1456.234-.3416.239-.5475v-7.5131c-.036-.19485-.136-.37235-.286-.50455-.15-.1323-.339-.2118-.54-.2259ZM30.6367 7.69798l2.4512 2.88002c.2806.3235.5294.5896.63.7409.7331.7285 1.1441 1.7131 1.1435 2.7391-.0688 1.2104-.8576 2.0348-1.5882 2.9165l-1.7153 2.014-.8947 1.0434c-.0321.036-.0528.0804-.0596.1279-.0067.0475.0008.0958.0217.1391.0208.0433.054.0796.0956.1045.0415.0248.0895.0372.1381.0355h8.9418c1.3659 0 3.0865 1.1478 2.9859 2.8904-.0028.792-.3233 1.5509-.8916 2.1109-.5683.5601-1.3382.8759-2.1419.8787h-14.003c-.9212 0-3.3988.0991-4.0923-2.0139-.1475-.4416-.1677-.9148-.0583-1.367.2016-.6686.5206-1.2973.9424-1.8574.7041-1.0435 1.4665-2.087 2.2182-3.0991.9688-1.3253 1.9641-2.6087 2.9436-3.96.0347-.044.0536-.0982.0536-.1539 0-.0558-.0189-.1099-.0536-.1539l-3.5577-4.17402c-.0232-.0302-.0532-.0548-.0877-.0717-.0344-.0168-.0723-.0256-.1108-.0256-.0385 0-.0765.0088-.1109.0256-.0344.0169-.0645.0415-.0877.0717-.9529 1.26792-5.1247 6.88182-6.0141 8.01922-.8894 1.1374-3.0811 1.2-4.2935 0l-5.56406-5.5044c-.0355-.0351-.0809-.0591-.1303-.0688-.0493-.0097-.1005-.0047-.147.0143-.0466.019-.0863.0512-.1142.0924-.0279.0413-.04271.0899-.04261.1395V22.818c.013.7512-.21259 1.4877-.64559 2.1061-.4329.6184-1.0513 1.0879-1.7686 1.3426-.45826.1572-.94803.2041-1.42853.1369-.48044-.0672-.93758-.2467-1.33336-.5234-.39579-.2767-.71873-.6427-.94188-1.0673-.22309-.4247-.339995-.8958-.340895-1.374V4.40579c.031925-.68591.282345-1.34444.715715-1.88206.43338-.53762 1.02764-.92695 1.69841-1.11272.57536-.15105 1.18101-.14954 1.75554.0044.5746.1539 1.0977.45481 1.5162.87215l8.55526 8.44174c.0256.0256.0566.0454.0909.0579.0342.0125.0708.0175.1072.0145.0363-.003.0716-.0138.1033-.0317.0316-.018.0588-.0425.0798-.072l6.0776-8.29048c.2809-.33654.633-.6085 1.0318-.79687.3987-.18836.8344-.28853 1.2765-.29355h15.8082c.4326.00074.8602.09243 1.2539.26904.3937.17667.7447.43412 1.0294.75516.2846.32103.4964.69829.6213 1.10652.1248.40823.1598.838.1025 1.26058-.1114.73308-.4888 1.40148-1.0622 1.88118-.5735.4797-1.304.7382-2.0561.7276h-8.8517c-.0445.001-.0879.0138-.1257.037-.0377.0232-.0685.056-.089.0948-.0205.0389-.0301.0826-.0277.1263.0023.0438.0166.0862.0412.1227Z" fill="#fff"/></svg>