<svg width="107" height="23" viewBox="0 0 107 23" fill="none" xmlns="http://www.w3.org/2000/svg"><path d="M3.50571 14.9377c0 1.2393.27202 2.1908.62756 2.7664.46615.754 1.16142 1.0734 1.87024 1.0734.91424 0 1.7506-.2269 3.36237-2.456 1.29122-1.7867 2.81272-4.2947 3.83642-5.867l1.7337-2.66368c1.2043-1.84992 2.5982-3.9064 4.1964-5.30033C20.4372 1.35277 21.8447.720703 23.2612.720703c2.3781 0 4.6434 1.378137 6.3771 3.962837 1.8973 2.83076 2.8183 6.39626 2.8183 10.07586 0 2.1874-.4311 3.7946-1.1648 5.0644-.7088 1.228-2.0903 2.4549-4.4143 2.4549v-3.5012c1.9899 0 2.4865-1.8285 2.4865-3.9211 0-2.982-.6952-6.29129-2.2269-8.6559-1.0869-1.67724-2.4955-2.70209-4.0452-2.70209-1.6761 0-3.0249 1.26414-4.5407 3.51813-.8059 1.19754-1.6332 2.65694-2.5622 4.30366l-1.0226 1.8116c-2.0542 3.6423-2.5745 4.4719-3.6016 5.841-1.80027 2.3973-3.33755 3.3059-5.36129 3.3059-2.40073 0-3.91882-1.0395-4.85902-2.6061C.376983 18.396 0 16.721 0 14.8124l3.50571.1253Z" fill="#fff"/><path d="M2.76367 4.93072C4.37093 2.45324 6.69039.720703 9.35071.720703c1.54069 0 3.07229.455987 4.67169 1.761887 1.7494 1.42779 3.614 3.77886 5.9403 7.65361l.8341 1.3906c2.0136 3.3545 3.1592 5.0802 3.8296 5.894.8623 1.0452 1.4662 1.3567 2.2506 1.3567 1.9899 0 2.4865-1.8285 2.4865-3.9211l3.0927-.097c0 2.1874-.4312 3.7946-1.1649 5.0644-.7088 1.228-2.0903 2.4549-4.4143 2.4549-1.4447 0-2.7246-.3138-4.14-1.649-1.0881-1.0249-2.3601-2.8454-3.3387-4.482l-2.9109-4.8624c-1.4605-2.44028-2.8003-4.25973-3.5757-5.08367-.8341-.88603-1.9063-1.95602-3.61742-1.95602-1.38491 0-2.561.9718-3.54522 2.45828L2.76367 4.93072Z" fill="#fff"/><path d="M9.29477 4.24561c-1.3849 0-2.561.9718-3.54522 2.45828-1.39167 2.1005-2.24384 5.22921-2.24384 8.23381 0 1.2393.27202 2.1908.62756 2.7664l-2.98878 1.9685C.376983 18.396 0 16.721 0 14.8124c0-3.4707.952615-7.08817 2.76416-9.88168C4.37142 2.45324 6.69088.720703 9.35121.720703L9.29477 4.24561ZM39.2715 1.40234h4.0554L50.222 13.8766l6.8963-12.47426h3.9674V21.8994h-3.3082V6.19025L51.73 17.0686h-3.1039L42.5797 6.19025V21.8994h-3.3082V1.40234Zm32.1801 7.64237c-2.3725 0-3.8014 1.78559-4.1434 3.99669h8.052c-.1659-2.2777-1.4797-3.99669-3.9086-3.99669ZM64.0282 14.301c0-4.65244 3.0068-8.03851 7.481-8.03851 4.4007 0 7.0283 3.34318 7.0283 8.28681v.9086H67.3082c.3984 2.4053 1.9944 4.0261 4.5678 4.0261 2.0531 0 3.3364-.6265 4.5531-1.7721l1.7574 2.1524c-1.6558 1.5226-3.7619 2.4008-6.4279 2.4008-4.8432 0-7.7304-3.5317-7.7304-7.9641Zm18.5207-4.96283h-3.0452V6.62931h3.0452V2.14954h3.1919v4.47977h4.6265v2.70886h-4.6265V16.204c0 2.3443.7495 3.1773 2.5915 3.1773.8409 0 1.3228-.0723 2.035-.1908V21.87c-.8871.2506-1.7336.3657-2.6501.3657-3.4459 0-5.1683-1.8826-5.1683-5.6513V9.33817Zm21.2591 2.63433c-.641-1.6185-2.071-2.81041-4.173-2.81041-2.7314 0-4.4798 1.93801-4.4798 5.09491 0 3.0779 1.6095 5.1096 4.3489 5.1096 2.1539 0 3.6909-1.2529 4.3039-2.8116v-4.5825ZM107 21.8994h-3.134v-2.1378c-.875 1.2585-2.469 2.5035-5.0504 2.5035-4.1514 0-6.9257-3.4753-6.9257-8.0081 0-4.57571 2.8409-7.99451 7.1018-7.99451 2.1063 0 3.7583.842 4.8743 2.32849V6.62931H107V21.8994Z" fill="#fff"/></svg>