<svg width="147" height="26" viewBox="0 0 147 26" fill="none" xmlns="http://www.w3.org/2000/svg"><path d="M.131409 25.7517 1.31323 20.729H13.3424l.6754-.5487.2954-1.1819-.3798-.4643H5.61842l-3.25-4.2207 1.0974-4.76951 4.09416-3.33442H22.4171l-1.1818 5.02273H9.79699l-.71753.5487-.25325 1.1818.37987.4643H17.521l3.25 4.2208-1.0974 4.7695-4.1363 3.3344H.131409ZM26.5535 25.7517l3.3344-14.5195h-7.1331l1.1818-5.02273h20.3863l-1.1396 5.02273h-7.1331l-3.3766 14.5195h-6.1201ZM41.4951 25.7517l4.5162-19.54223h17.8961l-1.1818 5.02273H50.9918l-.5487 2.3636h8.6526l-1.0552 4.4741h-8.6526l-.5909 2.6591h12.0292l-1.1818 5.0227H41.4951ZM80.7483 6.20947H65.6801L61.1639 25.7517h6.1623l1.0974-4.8961h9.539l4.263-3.4611 1.6461-7.1331-3.1234-4.05193Zm-4.0942 8.77923-1.013.8441h-5.9935l1.0552-4.6006h6.078l.5909.7597-.7176 2.9968ZM88.8944 25.7517l4.5162-19.54223h8.6944l2.997 12.87333h.844l2.997-12.87333h5.74l-4.558 19.54223h-8.695l-2.9966-12.8734h-.8864l-2.9545 12.8734h-5.6981Z" fill="#fff"/><path fill-rule="evenodd" clip-rule="evenodd" d="M89.5275.00488281 84.4626 9.41722l3.5032-.04221-.2954 5.99349 4.5162-9.15907H88.81l.7175-6.20454719ZM121.352 13.8068c0-.2955-.253-.5065-.506-.5065h-4.052c-.296 0-.507.2532-.507.5065 0 .2954.253.5065.507.5065h4.052c.295 0 .506-.2533.506-.5065ZM124.771 18.2387c0-.2955-.253-.5065-.506-.5065h-4.052c-.296 0-.507.2532-.507.5065 0 .2954.253.5065.507.5065h4.052c.253 0 .506-.2111.506-.5065ZM123.589 16.0438c0 .2955-.253.5065-.506.5065h-4.474c-.296 0-.507-.2532-.507-.5065 0-.2954.253-.5065.507-.5065h4.474c.295-.0422.506.2111.506.5065ZM117.047 15.4951c-.295 0-.507.2533-.507.5065 0 .2955.254.5065.507.5065h.211c.295 0 .507-.2532.507-.5065 0-.2954-.254-.5065-.507-.5065h-.211ZM126.501 20.4756c0-.2954-.253-.5065-.506-.5065H117.3c-.295 0-.506.2533-.506.5065 0 .2955.253.5065.506.5065h8.695c.295 0 .506-.211.506-.5065Z" fill="#fff"/><path fill-rule="evenodd" clip-rule="evenodd" d="M142.54 19.8847c-1.603-.6331-2.363-1.0129-3.038-.422.337-.6754.211-.7176-.085-1.1818-.549-.9708-2.026-2.5747-2.532-5.6559 0 0 .802-2.1948.886-3.58765 0 0 .295-.88637-1.055-.46429 0 0-1.731 1.0552-2.659 1.30844-1.689-.21104-4.179-1.43506-5.107-3.2922 0 0 .759-1.6039.084-1.98377-.464-.25325-1.857 1.18182-1.857 1.18182l-4.516 5.23375-.338.6331c-.127.2533-.127.5909.084.8864 1.182 1.6039 5.867 7.8084 8.569 11.1429-7.64.0422-11.776 1.224-8.822 1.6461 2.406.3376 7.809.2532 11.903.211.506.1688 1.013.2954 1.561.3377l6.922.0422c.887-.0422 1.689-.1267 2.364-.1689.422-.0422.802-.3376.929-.7175.759-1.9416-.422-4.0097-3.293-5.1494Zm-12.282-.7175.169-3.0812h-1.815l2.575-4.8538-.38 3.1655h1.73l-2.279 4.7695Z" fill="#fff"/></svg>