<svg width="60" height="46" viewBox="0 0 60 46" fill="none" xmlns="http://www.w3.org/2000/svg"><path fill-rule="evenodd" clip-rule="evenodd" d="M59.64 25.28h-8.06c.19 1.93 1.6 2.55 3.2 2.55 1.64 0 2.96-.37 4.05-.95v3.32c-1.3832.7959-2.966 1.1777-4.56 1.1-4.01 0-6.83-2.5-6.83-7.48 0-4.19 2.39-7.52 6.3-7.52 3.92 0 5.96 3.28 5.96 7.5 0 .4-.04 1.26-.06 1.48Zm-5.92-5.62c-1.03 0-2.17.73-2.17 2.58h4.25c0-1.85-1.07-2.58-2.08-2.58ZM40.95 31.3c-1.44 0-2.32-.6-2.9-1.04l-.02 4.63-4.12.87V16.57h3.76l.08 1.02c.8721-.8272 2.028-1.2889 3.23-1.29 2.9 0 5.62 2.6 5.62 7.4 0 5.23-2.7 7.6-5.65 7.6ZM40 19.95c-.95 0-1.54.34-1.97.81l.02 6.12c.4.44.98.78 1.95.78 1.52 0 2.54-1.65 2.54-3.87 0-2.15-1.04-3.84-2.54-3.84Zm-11.76-3.38h4.13v14.44h-4.13V16.57Zm0-4.7 4.13-.87v3.36l-4.13.88V11.87Zm-4.32 9.35v9.79H19.8V16.57h3.7l.12 1.22c1-1.77 3.07-1.41 3.62-1.22v3.79c-.52-.17-2.29-.43-3.32.86Zm-8.55 4.72c0 2.43 2.6 1.68 3.12 1.46v3.36c-.55.3-1.54.54-2.89.54-.5627.0164-1.1228-.0818-1.6463-.2887-.5235-.2069-.9994-.5181-1.3988-.9147-.3995-.3966-.714-.8704-.9246-1.3924-.2106-.522-.3127-1.0814-.3003-1.6442l.01-13.17 4.02-.86v3.54h3.14v3.53h-3.13v5.85-.01Zm-4.91.7c0 2.97-2.31 4.66-5.73 4.66-1.53468-.0012-3.05275-.3177-4.46-.93v-3.93c1.38.75 3.1 1.31 4.46 1.31.92 0 1.53-.24 1.53-1 0-1.98-6.26-1.24-6.26-5.8 0-2.91 2.28-4.65 5.62-4.65 1.36 0 2.72.2 4.09.75v3.88c-1.26604-.6663-2.66965-1.0292-4.1-1.06-.86 0-1.44.25-1.44.9 0 1.85 6.29.97 6.29 5.88v-.01Z" fill="#fff"/></svg>